<svg width="11" height="23" viewBox="0 0 11 23" fill="none" xmlns="http://www.w3.org/2000/svg">
<path d="M1.4256 19.5406C1.87401 19.5394 2.23649 19.175 2.23531 18.7266L2.19798 4.8871C2.19798 3.09644 3.65213 1.64229 5.44567 1.64183C7.23878 1.64229 8.69293 3.09644 8.69293 4.88931L8.73026 19.1373C8.73023 20.2553 7.82144 21.1641 6.70069 21.1645C5.57982 21.1645 4.67114 20.2558 4.67111 19.1347L4.67117 7.36244L4.67106 7.36018C4.6723 6.91293 5.035 6.55083 5.48257 6.55083C5.93089 6.55083 6.29421 6.91414 6.29421 7.36247L6.2948 13.0454C6.29485 13.4938 6.65838 13.8573 7.10676 13.8572C7.55514 13.8572 7.91862 13.4936 7.91856 13.0453L7.918 7.36239C7.918 6.01736 6.8277 4.92706 5.48259 4.92709C4.13751 4.92709 3.04722 6.01738 3.04719 7.36249L3.04743 7.36704L3.04743 19.1347C3.04743 21.1526 4.68309 22.7883 6.70104 22.7883C8.71852 22.7876 10.3541 21.152 10.3541 19.1352L10.3167 4.88715C10.3167 2.19968 8.13576 0.0187392 5.44567 0.0180666C2.75519 0.0187662 0.574219 2.19973 0.574219 4.88931L0.611516 18.731C0.612754 19.1793 0.977226 19.5418 1.4256 19.5406Z" fill="#EE3940"/>
</svg>
