<svg width="14" height="14" viewBox="0 0 14 14" fill="none" xmlns="http://www.w3.org/2000/svg">
<path d="M13.2272 1.58362e-08H0.772119C0.345642 0.000256365 -8.54334e-05 0.346155 1.58362e-08 0.772803V13.2279C0.000256365 13.6544 0.346155 14.0001 0.772803 14H7.47852V8.58594H5.66016V6.4668H7.47852V4.90726C7.47852 3.09873 8.5826 2.11436 10.1959 2.11436C10.9686 2.11436 11.6326 2.17195 11.8262 2.19767V4.08789H10.7137C9.83597 4.08789 9.66602 4.50497 9.66602 5.11713V6.4668H11.7646L11.4912 8.58594H9.66602V14H13.2272C13.6539 14.0001 13.9999 13.6543 14 13.2275C14 13.2275 14 13.2274 14 13.2272V0.772119C13.9998 0.345642 13.6538 -8.54334e-05 13.2272 1.58362e-08Z" fill="white"/>
</svg>
