<svg width="16" height="16" viewBox="0 0 16 16" fill="none" xmlns="http://www.w3.org/2000/svg">
<path d="M11.4407 0H4.24634C1.90487 0 0 1.90487 0 4.24634V11.4408C0 13.7822 1.90487 15.687 4.24634 15.687H11.4408C13.7822 15.687 15.687 13.7822 15.687 11.4408V4.24634C15.687 1.90487 13.7822 0 11.4407 0V0ZM7.84352 12.1328C5.47835 12.1328 3.55421 10.2087 3.55421 7.84352C3.55421 5.47835 5.47835 3.55421 7.84352 3.55421C10.2087 3.55421 12.1328 5.47835 12.1328 7.84352C12.1328 10.2087 10.2087 12.1328 7.84352 12.1328ZM12.2354 4.56577C11.5364 4.56577 10.9679 3.99728 10.9679 3.29833C10.9679 2.59939 11.5364 2.03077 12.2354 2.03077C12.9343 2.03077 13.5029 2.59939 13.5029 3.29833C13.5029 3.99728 12.9343 4.56577 12.2354 4.56577Z" fill="white"/>
<path d="M7.84232 4.47412C5.98437 4.47412 4.47266 5.98571 4.47266 7.84378C4.47266 9.70174 5.98437 11.2134 7.84232 11.2134C9.70039 11.2134 11.212 9.70174 11.212 7.84378C11.212 5.98571 9.70039 4.47412 7.84232 4.47412Z" fill="white"/>
<path d="M12.2306 2.95142C12.0389 2.95142 11.8828 3.10748 11.8828 3.29921C11.8828 3.49094 12.0389 3.64701 12.2306 3.64701C12.4225 3.64701 12.5785 3.49106 12.5785 3.29921C12.5785 3.10736 12.4225 2.95142 12.2306 2.95142Z" fill="white"/>
</svg>
