<svg width="17" height="14" viewBox="0 0 17 14" fill="none" xmlns="http://www.w3.org/2000/svg">
<path d="M7.85676 1.9255C6.41712 2.64757 5.28378 3.54346 4.45676 4.61318C3.66036 5.65616 3.21622 6.87297 3.12432 8.26361C3.49189 8.10315 3.89009 8.02292 4.31892 8.02292C5.26847 8.02292 6.03423 8.29035 6.61622 8.82521C7.22883 9.36008 7.53513 10.0554 7.53513 10.9112C7.53513 11.8472 7.21351 12.596 6.57027 13.1576C5.92703 13.7192 5.11531 14 4.13513 14C2.94054 14 1.94504 13.5855 1.14865 12.7564C0.382883 11.9007 0 10.7106 0 9.18625C0 7.18052 0.581982 5.38873 1.74595 3.81089C2.90991 2.2063 4.53333 0.936008 6.61622 0L7.85676 1.9255ZM17 1.9255C15.5604 2.64757 14.427 3.54346 13.6 4.61318C12.8036 5.65616 12.3595 6.87297 12.2676 8.26361C12.6351 8.10315 13.0333 8.02292 13.4622 8.02292C14.4117 8.02292 15.1775 8.29035 15.7595 8.82521C16.3721 9.36008 16.6784 10.0554 16.6784 10.9112C16.6784 11.8472 16.3568 12.596 15.7135 13.1576C15.0703 13.7192 14.2586 14 13.2784 14C12.0838 14 11.0883 13.5855 10.2919 12.7564C9.52612 11.9007 9.14324 10.7106 9.14324 9.18625C9.14324 7.18052 9.72522 5.38873 10.8892 3.81089C12.0532 2.2063 13.6766 0.936008 15.7595 0L17 1.9255Z" fill="#EE3940"/>
</svg>
