<svg width="21" height="13" viewBox="0 0 21 13" fill="none" xmlns="http://www.w3.org/2000/svg">
<path d="M20.7296 10.8825C20.6734 10.7863 20.3256 10.0138 18.6522 8.42591C16.9004 6.76321 17.1357 7.0332 19.2458 4.15821C20.5309 2.40729 21.0447 1.33803 20.8839 0.880919C20.7309 0.445194 19.7857 0.56014 19.7857 0.56014L16.6428 0.578852C16.6428 0.578852 16.4101 0.546774 16.2363 0.652364C16.0676 0.756617 15.9591 0.997202 15.9591 0.997202C15.9591 0.997202 15.461 2.35249 14.7969 3.50463C13.3967 5.93586 12.8358 6.06418 12.6071 5.91314C12.075 5.56162 12.2083 4.49904 12.2083 3.74521C12.2083 1.38882 12.5574 0.406433 11.5272 0.152483C11.1847 0.0682788 10.9336 0.0121424 10.059 0.00278638C8.93733 -0.00924283 7.98688 0.00679612 7.44956 0.275449C7.09135 0.45455 6.8155 0.854188 6.98415 0.87691C7.19202 0.904978 7.66266 1.00656 7.91236 1.35407C8.23528 1.80182 8.22351 2.8096 8.22351 2.8096C8.22351 2.8096 8.40916 5.58301 7.79078 5.92784C7.36589 6.16442 6.78412 5.68191 5.5356 3.47522C4.89631 2.34581 4.41259 1.09611 4.41259 1.09611C4.41259 1.09611 4.31977 0.863544 4.15374 0.739242C3.95241 0.588208 3.67002 0.540092 3.67002 0.540092L0.681421 0.558804C0.681421 0.558804 0.233 0.57217 0.068274 0.77132C-0.0781491 0.949085 0.0565079 1.31531 0.0565079 1.31531C0.0565079 1.31531 2.39666 6.91157 5.04535 9.73309C7.47571 12.3194 10.2342 12.1496 10.2342 12.1496H11.484C11.484 12.1496 11.8619 12.1069 12.054 11.8943C12.2318 11.6992 12.2253 11.333 12.2253 11.333C12.2253 11.333 12.2005 9.61814 12.9796 9.36553C13.7471 9.11692 14.7328 11.0229 15.7774 11.7567C16.567 12.3113 17.1671 12.1897 17.1671 12.1897L19.9609 12.1496C19.9609 12.1496 21.4225 12.0574 20.7296 10.8825Z" fill="white"/>
</svg>
