<svg width="156" height="58" viewBox="0 0 156 58" fill="none" xmlns="http://www.w3.org/2000/svg">
<path d="M65.6332 3.67621L66.6503 1.77268C67.1822 0.774258 67.7327 0.484996 68.2319 0.484996C68.3792 0.482931 68.5257 0.504996 68.6658 0.550313L68.7638 1.45076C68.6456 1.4269 68.5251 1.41595 68.4045 1.4181C68.1433 1.4181 67.854 1.62338 67.5274 2.19724L66.487 4.06344L68.8711 7.74453H67.6487L65.6426 4.52999H64.8494V6.93273L64.9567 7.74453H63.8743V1.63271L63.7344 0.638958H64.8494V3.67621H65.6332Z" fill="white"/>
<path d="M71.9467 2.01074C73.0291 2.01074 74.0789 2.56127 74.0789 3.76497C74.0789 4.77272 73.0291 5.65917 71.6201 5.65917H71.1536V7.05883L71.2609 7.76332H70.2298V2.8552L70.0898 2.01074H71.9467ZM71.7741 4.93135C71.9404 4.94742 72.1083 4.92907 72.2672 4.87746C72.4262 4.82584 72.5728 4.74207 72.698 4.63134C72.8231 4.52062 72.9242 4.38532 72.9948 4.23386C73.0654 4.0824 73.1041 3.91803 73.1084 3.75098C73.1084 3.06981 72.4926 2.72457 71.7741 2.72457H71.1676V4.92202L71.7741 4.93135Z" fill="white"/>
<path d="M76.6904 4.16157H77.2876C79.1304 4.16157 79.7556 5.00603 79.7556 5.95779C79.7556 6.90956 79.1258 7.75401 77.2876 7.75401H75.7713V2.8179L75.6406 2.0061H76.6904V4.16157ZM76.6904 7.04952H77.4042C78.4633 7.04952 78.7805 6.53165 78.7805 5.95779C78.7805 5.11333 78.2626 4.86606 77.2549 4.86606H76.6904V7.04952ZM81.6498 7.09151L81.7478 7.74935H80.712V2.8179L80.5814 2.0061H81.6451L81.6498 7.09151Z" fill="white"/>
<path d="M85.0878 4.41351L84.7846 3.86298V7.05419L84.8919 7.75868H83.9588V2.84123L83.8281 2.0061H84.4486L87.3832 5.73851L89.9913 2.0061H90.5745V7.05419L90.6818 7.75868H89.6507V3.84898L89.3474 4.36685L87.3319 7.16616L85.0878 4.41351Z" fill="white"/>
<path d="M96.9955 3.28445C96.5575 2.85748 95.9695 2.61957 95.3579 2.62195C94.7745 2.65097 94.2263 2.90963 93.8329 3.34144C93.4396 3.77325 93.233 4.34315 93.2584 4.92671C93.2528 5.21407 93.3047 5.49965 93.4111 5.76665C93.5175 6.03364 93.6762 6.27667 93.8779 6.48141C94.0796 6.68616 94.3202 6.8485 94.5856 6.95889C94.851 7.06927 95.1358 7.12547 95.4232 7.12417C96.1087 7.0549 96.7653 6.81248 97.3314 6.41967L97.5693 7.12417C96.9002 7.60804 96.0995 7.87656 95.2739 7.89398C93.7483 7.89398 92.274 6.90022 92.274 5.01536C92.2664 4.60215 92.3421 4.19166 92.4968 3.80841C92.6514 3.42517 92.8817 3.07702 93.174 2.7848C93.4662 2.49257 93.8143 2.26226 94.1976 2.10762C94.5808 1.95299 94.9913 1.8772 95.4045 1.8848C96.1755 1.87608 96.9234 2.14803 97.5087 2.64994L96.9955 3.28445Z" fill="white"/>
<path d="M100.773 4.43227L101.706 2.92998C102.173 2.12751 102.691 1.90356 103.148 1.90356C103.28 1.90497 103.412 1.92379 103.54 1.95955L103.628 2.6827C103.52 2.67581 103.41 2.67581 103.302 2.6827C103.073 2.6827 102.835 2.846 102.513 3.31255L101.547 4.80551L103.736 7.78211H102.593L100.773 5.19275H100.073V7.09628L100.171 7.75412H99.1541V2.818L99.0234 2.00621H100.073V4.43227H100.773Z" fill="white"/>
<path d="M109.152 3.67636L105.947 7.75401H105.093V2.8179L104.977 2.01077H106.026V6.55031L106.288 6.08376L109.493 2.0061H110.347V7.09151L110.445 7.74935H109.427V3.21914L109.152 3.67636Z" fill="white"/>
<path d="M116.76 3.67628L113.555 7.75394H112.701V2.81783L112.57 2.00603H113.62V6.55024L113.881 6.08369L117.101 2.0107H117.954V7.0961L118.052 7.75394H117.035V3.21906L116.76 3.67628ZM116.326 0.36377L116.867 0.536393C116.867 0.536393 116.475 1.79142 115.318 1.79142C114.161 1.79142 113.769 0.536393 113.769 0.536393L114.301 0.36377C114.301 0.36377 114.679 1.21756 115.309 1.21756C115.939 1.21756 116.326 0.36377 116.326 0.36377Z" fill="white"/>
<path d="M63.75 13.6187H67.4544V14.4398H64.8511V19.9264L64.9584 20.7382H63.876V14.6124L63.75 13.6187Z" fill="white"/>
<path d="M73.6148 17.827C73.626 18.2229 73.5579 18.617 73.4144 18.9862C73.2709 19.3553 73.0549 19.692 72.7793 19.9763C72.5036 20.2607 72.1738 20.487 71.8093 20.6419C71.4448 20.7968 71.0529 20.8772 70.6569 20.8782C68.8607 20.8782 67.8296 19.5579 67.8296 17.9343C67.8171 17.5393 67.884 17.1457 68.0261 16.7769C68.1683 16.4081 68.383 16.0716 68.6574 15.7872C68.9318 15.5027 69.2605 15.2762 69.6239 15.1209C69.9874 14.9656 70.3783 14.8847 70.7735 14.8831C72.6724 14.8831 73.6148 16.1381 73.6148 17.827ZM70.7362 20.1597C71.8746 20.1597 72.6024 19.1333 72.6024 17.8643C72.6024 16.5953 71.8559 15.5689 70.7362 15.5689C69.6165 15.5689 68.842 16.5953 68.842 17.8643C68.842 19.1333 69.5932 20.1784 70.7315 20.1784L70.7362 20.1597Z" fill="white"/>
<path d="M79.3148 16.2685C78.8773 15.8443 78.2912 15.6082 77.6819 15.6106C77.0985 15.6397 76.5503 15.8983 76.1569 16.3301C75.7635 16.7619 75.557 17.3318 75.5824 17.9154C75.5768 18.2028 75.6287 18.4883 75.7351 18.7553C75.8415 19.0223 76.0002 19.2654 76.2019 19.4701C76.4036 19.6748 76.6442 19.8372 76.9096 19.9476C77.175 20.058 77.4598 20.1142 77.7472 20.1129C78.4327 20.0436 79.0893 19.8012 79.6554 19.4084L79.8933 20.1129C79.2242 20.5967 78.4235 20.8652 77.5979 20.8827C76.0723 20.8827 74.598 19.8889 74.598 18.004C74.5923 17.592 74.6694 17.183 74.8249 16.8014C74.9804 16.4198 75.211 16.0733 75.5031 15.7826C75.7951 15.4919 76.1426 15.2628 76.5249 15.1091C76.9072 14.9553 77.3165 14.8799 77.7285 14.8875C78.4924 14.8765 79.2345 15.1416 79.8187 15.634L79.3148 16.2685Z" fill="white"/>
<path d="M84.088 19.4926C83.6541 20.3931 83.0476 20.8923 82.1191 20.8923C81.9452 20.8901 81.773 20.8569 81.6106 20.7943L81.4706 20.0478C81.6309 20.1064 81.7993 20.1395 81.9698 20.1458C82.1947 20.1636 82.4199 20.1168 82.6191 20.011C82.8182 19.9052 82.9831 19.7448 83.0942 19.5486L81.0927 15.9655L80.3789 15.0044H81.6153L83.3462 18.1303L83.5841 18.7228L83.8127 18.1303L85.3197 15.0044H86.2528L84.088 19.4926Z" fill="white"/>
<path d="M86.1757 19.9916H86.7775C87.4167 18.9419 87.4913 17.8502 87.524 16.3572V15.8067L87.3934 14.9949H91.443V19.9916H92.1802V22.1424H91.2937V20.7428H87.0388V22.1424H86.1523L86.1757 19.9916ZM87.8133 19.9916H90.5519V15.7507H88.4618V16.3479C88.4618 17.8502 88.3545 18.9419 87.8133 19.9916Z" fill="white"/>
<path d="M95.174 14.9948L95.7245 14.8735L97.7074 19.721L98.2252 20.7381H97.1428L96.527 19.2451H94.1476L93.5084 20.7381H92.6406L95.174 14.9948ZM94.4602 18.5126H96.2471L95.4912 16.6464L95.3933 16.3198L95.2766 16.6464L94.4602 18.5126Z" fill="white"/>
<path d="M101.166 14.9949C102.249 14.9949 103.298 15.5454 103.298 16.7491C103.298 17.7569 102.249 18.6433 100.84 18.6433H100.373V20.043L100.481 20.7474H99.4681V15.8393L99.3281 14.9949H101.166ZM100.994 17.9155C101.159 17.9308 101.325 17.9124 101.483 17.8614C101.641 17.8104 101.786 17.7278 101.911 17.6187C102.036 17.5096 102.137 17.3762 102.209 17.2267C102.281 17.0772 102.321 16.9147 102.328 16.7491C102.328 16.0679 101.712 15.7227 100.994 15.7227H100.387V17.9201L100.994 17.9155Z" fill="white"/>
<path d="M108.995 16.2685C108.557 15.8432 107.969 15.607 107.358 15.6106C106.774 15.6397 106.226 15.8983 105.833 16.3301C105.439 16.7619 105.233 17.3318 105.258 17.9154C105.253 18.2028 105.304 18.4883 105.411 18.7553C105.517 19.0223 105.676 19.2654 105.878 19.4701C106.079 19.6748 106.32 19.8372 106.585 19.9476C106.851 20.058 107.136 20.1142 107.423 20.1129C108.108 20.0436 108.765 19.8012 109.331 19.4084L109.569 20.1129C108.9 20.5965 108.099 20.8649 107.274 20.8827C105.748 20.8827 104.274 19.8889 104.274 18.004C104.268 17.592 104.345 17.183 104.501 16.8014C104.656 16.4198 104.887 16.0733 105.179 15.7826C105.471 15.4919 105.818 15.2628 106.201 15.1091C106.583 14.9553 106.992 14.8799 107.404 14.8875C108.168 14.8765 108.91 15.1416 109.494 15.634L108.995 16.2685Z" fill="white"/>
<path d="M110.004 14.9949H115.085V15.732H112.971V20.0336L113.078 20.7381H112.052V15.7274H110.004V14.9949Z" fill="white"/>
<path d="M117.919 14.9482C119.076 14.9482 119.892 15.4148 119.892 16.3246C119.819 16.7848 119.576 17.2008 119.211 17.4909C119.524 17.5713 119.799 17.7573 119.99 18.0175C120.182 18.2777 120.277 18.596 120.261 18.9186C120.261 19.8517 119.621 20.7381 117.844 20.7381H116.351V15.8394L116.211 14.9949L117.919 14.9482ZM117.27 17.281H117.951C118.187 17.2873 118.422 17.306 118.656 17.337C118.868 17.1095 118.991 16.8128 119.001 16.5019C119.001 15.928 118.6 15.6667 117.657 15.6667C117.541 15.6667 117.41 15.6667 117.265 15.6667L117.27 17.281ZM117.27 20.029H117.951C118.982 20.029 119.295 19.5111 119.295 19.0026C119.295 18.2468 118.786 18.0088 117.802 18.0088H117.27V20.029Z" fill="white"/>
<path d="M122.015 15.8393L121.875 14.9949H125.267V15.718H122.934V17.4303H124.992L124.763 18.1534H122.934V20.0196H125.393L125.164 20.7428H122.01L122.015 15.8393Z" fill="white"/>
<path d="M132.356 20.0336L132.463 20.7381H131.432V18.1628H128.04V20.029L128.148 20.7335H127.117V15.8393L126.977 14.9949H128.036V17.3883H131.427V15.8393L131.287 14.9949H132.351L132.356 20.0336Z" fill="white"/>
<path d="M140 20.0336L140.108 20.7381H139.077V18.1628H135.685V20.029L135.792 20.7335H134.761V15.8393L134.621 14.9949H135.68V17.3883H139.072V15.8393L138.932 14.9949H139.996L140 20.0336Z" fill="white"/>
<path d="M143.328 17.1457H143.925C145.768 17.1457 146.393 17.9901 146.393 18.9419C146.393 19.8937 145.763 20.7381 143.925 20.7381H142.409V15.8067L142.297 14.9949H143.347L143.328 17.1457ZM143.328 20.0336H144.042C145.106 20.0336 145.418 19.5158 145.418 18.9419C145.418 18.0974 144.9 17.8502 143.892 17.8502H143.328V20.0336ZM148.287 20.0756L148.385 20.7335H147.368V15.8067L147.238 14.9949H148.287V20.0756Z" fill="white"/>
<path d="M154.721 16.6604L151.516 20.7381H150.662V15.8066L150.531 14.9948H151.581V19.5297L151.842 19.0632L155.047 14.9855H155.901V20.0802L155.999 20.7381H154.982V16.2032L154.721 16.6604ZM154.287 13.3479L154.828 13.5205C154.828 13.5205 154.436 14.7755 153.279 14.7755C152.122 14.7755 151.73 13.5205 151.73 13.5205L152.271 13.3479C152.271 13.3479 152.649 14.2017 153.279 14.2017C153.909 14.2017 154.287 13.3479 154.287 13.3479Z" fill="white"/>
<path d="M63.75 27.9185L72.3485 28.2217H79.9207L88.5192 27.9185V33.0085H87.2455C87.2082 31.8748 86.4524 29.6914 83.1165 29.6914H77.7605V50.2803C77.7605 51.9412 78.1384 53.1449 79.9953 53.3362V54.6052H72.2319V53.3222C74.0515 53.0982 74.504 51.9645 74.504 50.2663V29.6914H69.1293C66.3627 29.6914 65.3969 31.161 65.0377 33.0085H63.75V27.9185Z" fill="white"/>
<path d="M104.113 39.9459C104.757 33.9881 109.45 27.9136 117.479 27.9136C126.265 27.9136 130.925 35.1171 130.925 41.4156C130.925 47.714 126.26 54.9176 117.479 54.9176C110.21 54.9176 104.075 49.3749 104.033 41.4156H97.8655V50.28C97.8655 51.9036 98.2435 53.182 100.138 53.3359V54.605H92.3789V53.322C94.2451 53.1353 94.6137 51.8896 94.6137 50.266V32.5931C94.6137 31.1234 94.3851 29.8778 92.3789 29.4998V28.2168H100.142V29.4998C98.0615 29.8404 97.8702 31.1981 97.8702 32.5558V39.9459H104.113ZM107.845 41.4156C107.845 49.1463 112.277 53.4433 117.503 53.4433C122.728 53.4433 127.16 49.1463 127.16 41.4156C127.16 33.6848 122.705 29.4112 117.479 29.4112C112.254 29.4112 107.822 33.6848 107.822 41.4156H107.845Z" fill="white"/>
<path d="M135.857 28.6322H137.107C137.228 28.8967 137.427 29.118 137.677 29.2664C137.927 29.4148 138.216 29.4833 138.507 29.4627C139.286 29.409 140.053 29.2343 140.779 28.9448C142.411 28.2902 144.152 27.9453 145.911 27.9277C151.934 27.9277 154.812 31.2449 154.812 34.828C154.812 37.1281 153.637 38.5604 152.013 39.9601V40.184C153.215 40.8455 154.218 41.8173 154.917 42.9981C155.617 44.1789 155.986 45.5255 155.988 46.8977C155.988 51.8385 150.949 54.9317 145.799 54.9317C142.773 55.0135 139.793 54.1863 137.242 52.557C136.258 51.9178 135.199 51.274 134.364 51.274C133.528 51.274 132.661 52.5196 132.395 52.8556L131.602 51.9225C133.001 49.9256 134.289 48.302 136.183 48.302C137.471 48.302 138.87 49.2071 140.615 50.5648C142.281 51.8851 144.25 53.4667 146.681 53.4667C149.368 53.4667 152.209 50.938 152.209 47.0563C152.243 46.0575 152.046 45.0644 151.632 44.1546C151.219 43.2449 150.6 42.4432 149.825 41.8123C147.809 43.0298 145.512 43.7049 143.158 43.7718C140.279 43.7718 139.332 42.3022 139.332 41.3224C139.332 40.7579 139.598 39.5122 141.665 38.7937C142.848 38.4688 144.074 38.3288 145.299 38.3785C146.724 38.3961 148.134 38.6646 149.466 39.1716C150.063 38.6245 150.543 37.9612 150.875 37.2223C151.207 36.4835 151.385 35.6846 151.397 34.8747C151.422 34.0767 151.265 33.2836 150.936 32.5559C150.608 31.8281 150.118 31.185 149.503 30.6757C148.49 29.8343 147.209 29.3855 145.892 29.4114C144.026 29.4114 139.188 29.598 136.916 34.8047H135.857V28.6322ZM143.96 39.7221C141.576 39.7221 140.895 40.6553 140.895 41.3084C140.895 41.649 141.124 42.5541 143.228 42.5541C144.138 42.5541 146.494 42.2882 148.075 40.6879C146.812 40.0104 145.393 39.6773 143.96 39.7221Z" fill="white"/>
<path d="M55.8398 2.81786C55.8632 2.72448 55.8585 2.74316 55.8398 2.81786V2.81786Z" fill="black"/>
<path fill-rule="evenodd" clip-rule="evenodd" d="M55.4729 16.1333L55.5196 16.6558C55.5196 16.6558 55.4356 18.2141 55.4356 18.6107C55.6549 19.7444 57.0405 30.1672 56.8353 30.2745L55.3703 30.1205C55.325 30.5134 55.3729 30.9114 55.5103 31.2822C55.6554 32.113 55.7566 32.9508 55.8135 33.7923C56.3967 35.2339 56.2427 38.1405 56.2427 38.1405C56.1469 37.831 56.1405 39.354 56.1401 39.354C56.1401 39.354 56.1401 39.3465 56.1401 39.3302C55.9768 40.4453 56.1401 40.7299 56.1401 40.7299C56.1401 40.7299 55.9908 42.8527 55.9675 43.3799C55.8742 43.5012 55.5709 43.4499 55.5709 43.4499C55.5709 43.4499 56.2427 47.1076 56.4107 48.2647L56.2847 50.2242C56.2295 50.3748 56.1919 50.5314 56.1728 50.6907C56.1592 50.9509 56.1701 51.2118 56.2054 51.4699C56.1962 51.4775 56.1847 51.4816 56.1728 51.4816C56.1608 51.4816 56.1493 51.4775 56.1401 51.4699C56.0391 51.2632 55.9487 51.0514 55.8695 50.8354L55.9815 50.2942C55.9208 50.0796 55.8462 49.8883 55.8135 49.8743C55.7809 49.8603 55.7529 49.9023 55.7295 50.0329C55.7442 50.0549 55.7579 50.0796 55.771 50.1031C55.7996 50.1547 55.8252 50.2009 55.8508 50.2009C55.7543 50.5371 55.7148 50.8873 55.7342 51.2366C55.7342 51.5072 55.8928 52.2537 56.2008 52.3563L56.1261 53.3128C56.2854 54.376 56.2917 54.4479 56.3623 55.25C56.3807 55.4581 56.4033 55.7152 56.434 56.0514C56.405 56.0882 56.3543 56.0206 56.3013 55.9499C56.2264 55.8501 56.1468 55.7441 56.1168 55.9161C56.2211 56.2938 56.2837 56.6818 56.3034 57.0732C56.0167 57.0128 55.7237 56.9878 55.4309 56.9985C55.4309 56.9979 55.4319 56.9944 55.4333 56.9889C55.4421 56.9552 55.4711 56.8446 55.4309 56.8446V56.7699L54.7171 56.5786L54.5585 56.5133C54.1386 56.3547 53.714 56.2147 53.2848 56.0794C51.4233 55.3189 45.9973 52.8929 43.2633 51.4606C40.8606 50.1962 37.2075 47.9381 36.1297 45.3161C36.0637 45.1572 36.0031 44.9681 35.9416 44.776C35.864 44.5338 35.7848 44.2868 35.6912 44.089C35.7026 44.2308 35.672 44.3729 35.6031 44.4974C35.5342 44.6218 35.4302 44.7232 35.3039 44.7889L34.8934 45.0361C34.6228 43.9304 35.4672 39.2836 36.489 36.307C37.0144 36.2843 37.5128 36.0683 37.8886 35.7005C39.1709 34.664 39.4136 34.088 39.9306 32.8605C40.0024 32.6901 40.0795 32.5071 40.1654 32.3086C40.3602 31.8636 40.5634 31.4118 40.7692 30.9543C42.3974 27.3346 44.1911 23.3469 43.3006 19.3665C43.4214 19.5363 43.5941 19.6622 43.7927 19.7254C43.9913 19.7885 44.205 19.7853 44.4017 19.7164C43.2583 19.75 42.3093 16.6548 41.5664 14.2317C41.1755 12.9569 40.8417 11.8681 40.5666 11.5191C40.3926 11.298 40.0094 10.9462 39.5559 10.5299C38.3923 9.46169 36.7657 7.96851 37.0208 7.16618C36.6569 7.53475 35.6445 8.39321 35.5232 7.2315C34.5854 8.44919 32.7519 7.38546 31.147 6.20508C30.7647 5.92496 30.3958 5.63765 30.055 5.37228C29.3685 4.83765 28.7964 4.39204 28.4596 4.27356C26.9268 3.72665 26.6104 3.91256 25.7312 4.42907C25.5079 4.56027 25.2483 4.7128 24.9232 4.88008C24.6834 4.99871 24.4961 5.15793 24.3181 5.30918C24.1601 5.44346 24.0094 5.57146 23.8361 5.65922C23.5844 5.78614 23.2315 5.67897 22.8593 5.56593C22.4244 5.43382 21.963 5.2937 21.606 5.50992C21.8366 5.49864 22.0663 5.54677 22.2729 5.64971C22.4796 5.75264 22.6564 5.90692 22.7864 6.09778C21.2035 5.94965 19.6078 6.16508 18.1208 6.72762C17.8686 6.8275 17.254 7.15834 16.5564 7.53382C15.3315 8.19313 13.8509 8.99006 13.628 8.91575C13.8369 10.6233 13.6479 10.8604 12.7929 11.9331C12.6551 12.1061 12.4999 12.3008 12.3263 12.5269C11.8346 13.1585 11.8089 14.129 11.7908 14.8121C11.789 14.8808 11.7872 14.9466 11.7851 15.0089C11.7618 15.6901 11.8971 20.0663 13.1008 22.4737C13.3456 22.0223 13.4768 21.5185 13.4833 21.0058V21.9698C13.4697 22.2838 13.4215 22.5347 13.3712 22.7967C13.2668 23.3405 13.1532 23.9322 13.32 25.2357C13.5205 26.8075 13.8497 28.3601 14.3045 29.8779C14.6324 30.7385 15.0255 31.573 15.4802 32.3739C15.4802 32.3739 14.8876 28.2683 14.7244 26.542C14.5844 25.0817 15.2702 23.9154 15.5595 23.7101C15.5323 23.7898 15.4912 23.864 15.4382 23.9294C15.9561 23.8547 16.9498 23.8547 16.9498 24.7878C17.0945 24.8821 17.2607 24.938 17.433 24.9502C17.6052 24.9625 17.7777 24.9307 17.9342 24.8578C17.8712 24.6948 17.853 24.5179 17.8818 24.3456C17.9105 24.1732 17.985 24.0117 18.0975 23.878C18.2328 24.7785 19.9311 25.5343 20.3976 24.2606C20.3183 24.4146 19.6651 24.2513 19.5018 24.2C19.8098 22.5484 22.3385 23.7894 22.0212 25.2217C22.2507 25.2459 22.4815 25.1899 22.6744 25.0631C22.945 25.8189 22.3851 27.0179 22.0959 27.6105C21.8258 28.2425 21.6104 28.8965 21.452 29.5653C21.3299 30.0239 21.3299 30.5064 21.452 30.965L21.2794 31.3195C21.0829 31.7275 20.9232 32.0693 20.7979 32.3377C20.6107 32.7383 20.5002 32.9749 20.4583 33.0224C20.7615 33.6196 21.5453 33.3864 21.9372 32.6865C21.9657 32.745 22.0053 32.8034 22.0453 32.8624C22.1236 32.9776 22.2032 33.095 22.2032 33.2184C22.2574 33.1448 22.3092 33.0741 22.3587 33.0066C22.752 32.4699 23.0001 32.1313 23.1783 32.1313C23.1309 32.2441 23.0625 32.3838 22.9857 32.5407C22.7066 33.1109 22.3164 33.908 22.4225 34.4641C22.2312 33.8576 21.8019 34.5014 21.7366 34.7907C21.5871 34.5252 21.4831 34.2367 21.4287 33.9369C21.0164 34.0933 20.7297 34.4487 20.4764 34.7628C20.0877 35.2447 19.7776 35.6292 19.2126 35.0473C19.188 35.1222 19.1605 35.1999 19.1324 35.2796C18.952 35.7899 18.743 36.3813 19.0819 36.8575C19.4077 37.3202 20.0075 37.1592 20.6326 36.9915C20.9656 36.9021 21.3056 36.8108 21.6153 36.8108C22.2317 36.7955 22.9407 37.0343 23.6644 37.2781C25.1376 37.7743 26.6719 38.2911 27.6105 36.7269C26.9524 36.1445 26.0166 36.1629 25.0697 36.1816C24.325 36.1962 23.5735 36.211 22.945 35.9337C22.6137 34.2495 28.7769 35.5838 29.71 35.9104C31.9214 36.6755 33.867 36.4749 31.6322 34.2028C31.5038 34.3641 31.6564 34.681 31.787 34.952C31.8414 35.0651 31.892 35.1701 31.9168 35.2526C31.6746 35.1002 31.4925 34.8878 31.3097 34.6745C31.1511 34.4894 30.9919 34.3036 30.7924 34.1562C30.8962 34.2581 30.9747 34.3829 31.0217 34.5206C31.0687 34.6584 31.0828 34.8052 31.063 34.9493C30.6259 34.2638 30.6331 34.4789 30.6444 34.8183C30.6516 35.0334 30.6604 35.2983 30.5591 35.4159C30.0646 34.5294 28.441 32.8638 28.7629 34.4454C28.6191 34.2118 28.5005 33.9633 28.3871 33.7256C28.1765 33.2844 27.9837 32.8803 27.6805 32.6772C27.4995 33.0145 27.2611 33.3176 26.976 33.573C26.0532 34.1962 25.7256 33.4375 25.5069 32.9311C25.4702 32.8461 25.4366 32.7682 25.4037 32.7052C25.402 32.7307 25.3979 32.8003 25.3922 32.8973C25.3678 33.3154 25.3136 34.2417 25.2871 34.3288C24.9723 34.2605 24.676 34.1251 24.4184 33.9319C24.1608 33.7386 23.9478 33.4921 23.7941 33.2091C23.8202 32.773 23.938 32.3473 24.1398 31.9598C24.3416 31.5723 24.6228 31.2317 24.9652 30.9603C23.3462 30.629 22.6464 29.9385 22.749 29.1641C22.8303 28.5546 23.0929 27.8567 23.3743 27.1088C23.7392 26.1392 24.1356 25.0856 24.2093 24.032C24.2718 23.3302 24.0905 22.6283 23.6961 22.0445C22.5158 20.2903 17.8223 19.6837 16.3293 20.8315C16.5077 19.1566 17.01 17.5324 17.8083 16.0493L18.1395 15.5454C18.3459 15.2037 18.6207 14.9082 18.9466 14.6777C20.0197 14.1131 24.8019 13.18 28.0677 13.0307H29.2528C29.8728 12.9957 30.4918 13.116 31.0536 13.3806C32.7612 14.5797 34.7487 18.1255 34.9867 20.3276C35.1033 20.2389 29.5 18.6433 27.8904 20.3882C28.2976 21.1152 29.4835 21.1065 30.7002 21.0976C32.3414 21.0856 34.0387 21.0731 33.9556 22.8656C33.869 22.8956 33.5823 22.7893 33.1813 22.6407C31.8963 22.1644 29.4372 21.2529 28.6229 22.9916C29.11 23.1269 28.9053 23.3533 28.6532 23.6321C28.5142 23.7858 28.3607 23.9555 28.301 24.1346C28.7732 23.8722 29.2269 23.5776 29.6587 23.2529C30.0926 24.4706 31.2449 24.6245 31.7768 23.5141C31.6955 23.5121 31.6151 23.5314 31.5435 23.5701C31.4909 23.6104 31.4276 23.6344 31.3614 23.6392C31.2953 23.6441 31.2292 23.6295 31.1713 23.5973C31.1133 23.5651 31.066 23.5167 31.0352 23.458C31.0043 23.3993 30.9913 23.3329 30.9977 23.2669C30.9977 23.0896 31.2636 23.0196 31.5109 23.0196C31.9002 23.149 32.2503 23.3754 32.528 23.6774C32.573 23.7177 32.6197 23.7617 32.6687 23.8078C33.0049 24.1246 33.4465 24.5405 34.1795 24.5405C35.0121 24.5405 35.7896 23.6281 36.1439 23.2123L36.153 23.2015C36.3545 23.7187 36.4528 24.2702 36.4423 24.8251C36.3787 25.8009 36.0879 26.7483 35.5932 27.5918L34.7441 31.7254C34.7441 31.7254 35.7798 28.7395 36.6103 27.8204C36.9767 27.4149 37.4022 26.6142 37.7861 25.8918C38.2722 24.9769 38.6918 24.1874 38.8404 24.4846C39.3193 25.7049 39.5201 27.0166 39.4282 28.3243C39.2681 29.1071 39.024 29.8704 38.7004 30.601C38.4065 31.2962 37.7347 32.1547 36.6849 32.094C36.6023 32.2652 36.4582 33.069 36.2824 34.0494C36.0415 35.3933 35.7411 37.069 35.4579 37.9026C35.2879 38.6031 35.0776 39.2932 34.828 39.9694C34.5868 40.7456 34.4074 41.5396 34.2915 42.3441C33.8809 45.4654 34.5948 45.6567 34.5948 45.6567C34.5948 45.6567 29.1734 48.9412 25.3944 48.7779C22.5904 48.7138 19.9049 47.6346 17.8363 45.7406C16.9385 44.9432 16.088 44.0942 15.2889 43.1979L15.3215 43.1559L15.2282 43.1046C15.0789 43.044 15.0043 43.2306 15.0043 43.4405C14.8837 43.8938 14.9082 44.3735 15.0743 44.8122C15.6075 45.6712 16.2523 46.4556 16.9918 47.145C18.6748 48.5955 20.5915 49.7502 22.6604 50.5601C22.596 50.5437 22.5323 50.5275 22.4693 50.5115C19.423 49.7369 17.853 49.3378 15.9561 47.7608C15.9514 48.3207 15.9141 48.8012 15.8721 49.3097C14.301 48.0394 13.0002 46.4673 12.0464 44.6862C11.1111 44.9628 10.1379 45.0888 9.16306 45.0595C8.3195 44.9979 7.44775 44.7476 6.57647 44.4973C5.86237 44.2923 5.14859 44.0873 4.4509 43.9864C3.30772 43.8409 2.15508 43.7832 1.00309 43.8138V43.7485C0.809228 43.751 0.615839 43.7682 0.424562 43.7998C0.338458 42.8687 0.338458 41.9316 0.424562 41.0005C0.482796 41.4843 0.532428 41.3229 0.573458 41.1895C0.575161 41.184 0.57685 41.1785 0.578523 41.1731C0.620513 41.0378 0.849123 41.0844 0.891113 41.5043C0.899096 40.9537 0.833192 40.4045 0.695161 39.8714L0.797803 39.5542C0.71755 39.0791 0.613002 38.6548 0.505244 38.2175C0.299773 37.3836 0.0826325 36.5023 0 35.1313C0.041429 35.4992 0.080312 35.2537 0.118644 35.0116C0.153697 34.7902 0.188288 34.5717 0.223945 34.828C0.229818 34.4638 0.43164 34.865 0.547819 35.0959C0.616209 35.2318 0.654922 35.3088 0.606517 35.1359L0.774475 35.6631C0.777129 35.2703 0.780454 34.9496 0.783306 34.6747C0.795489 33.4998 0.799012 33.16 0.704492 31.5948L0.354579 30.7363C0.253581 29.2158 0.255491 28.4628 0.25785 27.5329C0.259415 26.9165 0.261176 26.2222 0.233276 25.1751V24.242C0.233276 24.1342 0.226851 23.9629 0.219059 23.7551C0.197156 23.171 0.16445 22.2987 0.233276 21.7412C0.235569 21.8215 0.320149 22.1734 0.405569 22.5288C0.49393 22.8965 0.583189 23.2679 0.583189 23.3462C0.8376 23.5412 0.822257 20.0984 0.817345 18.9963C0.816852 18.8857 0.816465 18.7987 0.816465 18.7413L0.349913 18.9606L0.433893 18.7087C0.433893 18.2304 0.395402 18.3004 0.356912 18.3704C0.318421 18.4404 0.279931 18.5104 0.279931 18.0322C0.442098 17.7441 0.447306 16.6449 0.452548 15.5384C0.457411 14.5121 0.462304 13.4794 0.59252 13.082C0.49921 12.8814 0.317255 13.348 0.317255 13.348C0.352888 12.0442 0.386637 11.54 0.413004 11.146C0.445325 10.6631 0.466551 10.346 0.466551 8.92508V9.02772C0.541649 8.42451 0.518012 7.81311 0.396569 7.2175C0.424756 7.1286 0.446898 7.22411 0.468145 7.31576C0.492615 7.42132 0.515898 7.52176 0.545865 7.32947C0.356773 6.43064 0.4625 6.15739 0.553244 5.92287C0.625943 5.73499 0.689025 5.57196 0.583189 5.13202C0.71043 5.19166 0.902059 4.58031 1.03966 4.14133C1.06351 4.06523 1.08574 3.99432 1.10573 3.93298C1.09313 3.66521 1.0248 3.40302 0.905109 3.16317C0.905109 3.16317 0.690496 3.75102 0.55053 4.21758V0.517824H11.2392L11.4772 0.485166L11.7897 0.587807H25.679H29.9619L29.9946 0.653124C30.2466 0.652586 30.498 0.629162 30.7457 0.583141C30.7457 0.489831 31.3709 0.415183 31.6788 0.382524C32.0765 0.438686 32.4802 0.438686 32.8779 0.382524C32.8779 0.382524 33.0691 0.681117 33.2371 0.732438C33.0802 0.715472 32.9869 0.690795 32.9042 0.668922C32.8049 0.642675 32.7209 0.620466 32.5606 0.620466H32.29H31.8235C31.3756 0.690448 31.0816 1.0077 31.5482 1.05902C32.1221 1.02637 33.9883 1.0077 34.4548 1.05902C34.2412 0.992731 34.8907 0.917393 35.5772 0.837771C36.1952 0.766095 36.843 0.690948 36.9182 0.6158L41.3831 0.779093H41.4391C41.6724 0.70911 42.0269 0.452507 41.6724 0.373193H41.0565C40.7812 0.307876 41.5231 0.102594 41.8776 0.0512731C42.5532 -0.0335099 43.2378 -0.0130497 43.9071 0.111925C44.227 0.162982 44.5296 0.291079 44.7889 0.485166C44.8627 0.528044 44.8191 0.561465 44.7759 0.5947C44.7014 0.65187 44.6277 0.708489 45.1528 0.811751C46.2209 0.900157 46.644 0.822147 47.1405 0.730627C47.6134 0.643441 48.1529 0.543994 49.3798 0.564479C49.4453 0.555309 49.4324 0.565636 49.4097 0.583892C49.3515 0.630646 49.2286 0.729403 50.1916 0.685783C51.1872 0.624476 52.169 0.421828 53.1075 0.0839317C53.1075 0.0839317 53.77 0.15858 53.9193 0.205235H54.4419H54.9457L55.9208 0.228563L55.8835 1.41827C55.8555 1.80551 55.8555 2.23473 55.8555 2.70128C55.8275 2.79459 55.7622 2.98588 55.7155 2.93456C55.7622 3.78835 56.0561 5.00605 56.1821 4.68879C56.1843 4.92897 56.1821 5.17774 56.1799 5.41955C56.1729 6.20172 56.1666 6.91107 56.3127 7.02155C56.3267 7.54366 56.2905 7.54947 56.2502 7.55594C56.2232 7.56028 56.1943 7.56492 56.1774 7.72604C56.1921 7.90372 56.2379 8.07743 56.3127 8.23925C56.2754 8.36055 56.1961 9.39629 56.1961 9.39629V10.3807C56.3351 10.2716 56.439 10.1239 56.4947 9.95615C56.558 9.99574 56.5079 10.2548 56.4524 10.5415C56.4098 10.7618 56.364 10.9983 56.364 11.1645C56.261 11.7907 56.3196 12.2449 56.377 12.6904C56.421 13.0317 56.4644 13.3679 56.434 13.7725L56.3314 13.0727C56.3036 13.6478 56.3302 14.2242 56.4107 14.7943C56.3885 14.8054 56.3437 14.7282 56.2913 14.6378C56.1894 14.4623 56.0588 14.2371 56.0095 14.5144C55.9721 16.1706 56.7513 16.5765 56.9426 16.4739C56.9426 16.4739 56.9659 19.6604 56.3687 19.4785C56.1066 19.3968 55.8046 17.5834 55.6207 16.4786C55.5526 16.0695 55.5007 15.7575 55.4729 15.6667V16.1333ZM13.4833 20.9248C13.4837 20.9518 13.4837 20.9788 13.4833 21.0058V20.9248ZM27.3259 30.7317C27.2326 30.9696 26.794 31.1236 25.8189 30.7737C26.6494 29.7379 27.4472 30.3444 27.3259 30.7317ZM20.0617 40.4873C19.4346 40.0801 18.8289 39.6409 18.2468 39.1716L16.4459 43.8278C16.4459 43.8278 18.4194 45.9926 20.0617 46.5664C21.7436 47.2583 23.5605 47.5598 25.3757 47.4482C27.7505 47.2849 29.43 46.3891 31.4829 44.9008C33.5357 43.4125 34.2495 41.0005 34.5761 39.7688C34.9027 38.5371 35.8358 34.4548 35.8358 34.4548L34.0676 37.0021C33.7724 37.66 33.4096 38.2854 32.9852 38.8683C32.3087 39.8854 30.7411 41.0051 29.4254 41.579C27.9802 42.1604 26.4002 42.3221 24.8672 42.0455C23.1867 41.8104 21.5604 41.283 20.0617 40.4873ZM13.4158 28.3664C13.2535 27.776 13.0924 27.1898 12.9888 27.0786C11.9577 25.9449 12.2796 28.5389 12.3729 28.8328C12.7882 30.1392 13.362 31.8841 14.3558 32.2106C14.0174 31.4908 14.0345 31.1411 14.051 30.805C14.0665 30.4876 14.0814 30.1823 13.7959 29.5886C13.6911 29.3684 13.5531 28.8659 13.4158 28.3664ZM56.0576 8.05589C55.9565 7.79246 55.848 7.50971 55.7575 7.84268V7.82868C55.6642 8.22058 55.4963 9.79286 55.4589 10.2174V10.3247C55.4773 10.3916 55.5188 10.4499 55.576 10.4892C55.6332 10.5285 55.7025 10.5462 55.7715 10.5393C55.7622 10.5207 55.8089 10.4927 55.8089 10.4927C55.8228 10.3527 55.9861 8.74779 56.0981 8.15993C56.0848 8.12664 56.0713 8.09144 56.0576 8.05589ZM16.831 36.769C16.4064 35.6353 15.7812 33.3678 15.7812 33.3678C15.9024 34.332 16.1053 35.284 16.3877 36.2138C16.6995 36.9845 17.1241 37.7046 17.6474 38.3506C17.3049 37.8628 17.0303 37.3307 16.831 36.769Z" fill="white"/>
</svg>
