<svg width="307" height="112" viewBox="0 0 307 112" fill="none" xmlns="http://www.w3.org/2000/svg">
<path d="M128.743 7.17285L130.741 3.43769C131.782 1.48457 132.865 0.954132 133.842 0.954132C134.204 0.954132 134.522 1.01731 134.692 1.08109L134.884 2.84285C134.714 2.79993 134.437 2.77907 134.182 2.77907C133.672 2.77907 133.098 3.1826 132.461 4.30725L130.422 7.95777L135.096 15.1748H132.675L128.743 8.87087H127.235V13.5823L127.448 15.1748H125.323V3.16174L125.047 1.20799H127.235V7.17285H128.743Z" fill="#4F4C4C"/>
<path d="M140.783 9.63495C142.186 9.63495 143.396 8.76541 143.396 7.34273C143.396 6.00529 142.186 5.32645 140.783 5.32645H139.594V9.63495H140.783ZM141.123 3.90376C143.248 3.90376 145.309 4.98672 145.309 7.34273C145.309 9.31669 143.248 11.0564 140.486 11.0564H139.594V13.7951L139.806 15.1748H137.788V5.5601L137.512 3.90376H141.123Z" fill="#4F4C4C"/>
<path d="M160.159 13.8803L160.35 15.1748H158.353V5.49632L158.098 3.90376H160.159V13.8803ZM150.428 13.7951H151.831C153.913 13.7951 154.528 12.7765 154.528 11.6519C154.528 9.99553 153.508 9.5074 151.533 9.5074H150.428V13.7951ZM150.428 8.12827H151.597C155.208 8.12827 156.441 9.78397 156.441 11.6519C156.441 13.5197 155.208 15.1748 151.597 15.1748H148.622V5.49632L148.367 3.90376H150.428V8.12827Z" fill="#4F4C4C"/>
<path d="M166.894 8.61639L166.299 7.53343V13.7951L166.512 15.1748H164.684V5.53863L164.43 3.90376H165.662L171.42 11.2054L176.54 3.90376H177.687V13.7951L177.9 15.1748H175.882V7.51259L175.286 8.53115L171.335 14.0073L166.894 8.61639Z" fill="#4F4C4C"/>
<path d="M190.252 6.40743C189.36 5.57958 188.297 5.1123 187.043 5.1123C184.601 5.1123 182.922 7.31928 182.922 9.63357C182.922 12.3299 185.068 13.9421 187.171 13.9421C188.935 13.9421 190.911 12.5623 190.911 12.5623L191.379 13.9421C191.379 13.9421 189.466 15.4487 186.873 15.4487C183.878 15.4487 180.988 13.4962 180.988 9.80343C180.988 6.27987 183.73 3.69085 187.13 3.69085C188.701 3.69085 190.04 4.17899 191.23 5.15524L190.252 6.40743Z" fill="#4F4C4C"/>
<path d="M197.693 8.65808L199.478 5.7085C200.434 4.13743 201.411 3.6922 202.304 3.6922C202.622 3.6922 202.92 3.75536 203.069 3.79829L203.239 5.22038C203.09 5.19953 202.835 5.17744 202.601 5.17744C202.155 5.17744 201.646 5.49632 201.05 6.4088L199.16 9.33754L203.451 15.1748H201.241L197.693 10.1445H196.292V13.8803L196.482 15.1748H194.486V5.49633L194.23 3.90378H196.292V8.65808H197.693Z" fill="#4F4C4C"/>
<path d="M214.1 7.17286L207.812 15.1748H206.134V5.49632L205.879 3.90376H207.94V12.7973L208.45 11.9057L214.739 3.90376H216.417V13.8803L216.608 15.1748H214.611V6.28123L214.1 7.17286Z" fill="#4F4C4C"/>
<path d="M228.192 0.67762L229.255 1.01735C229.255 1.01735 228.49 3.47943 226.216 3.47943C223.943 3.47943 223.178 1.01735 223.178 1.01735L224.24 0.67762C224.24 0.67762 224.984 2.35476 226.216 2.35476C227.449 2.35476 228.192 0.67762 228.192 0.67762ZM229.042 7.17287L222.753 15.1748H221.075V5.49633L220.82 3.90378H222.881V12.7973L223.39 11.9057L229.68 3.90378H231.358V13.8803L231.549 15.1748H229.551V6.28124L229.042 7.17287Z" fill="#4F4C4C"/>
<path d="M125.047 26.677H132.312V28.2892H127.235V39.05L127.448 40.6426H125.323V28.6283L125.047 26.677Z" fill="#4F4C4C"/>
<path d="M138.746 39.5388C140.977 39.5388 142.442 37.5219 142.442 35.039C142.442 32.556 140.977 30.5398 138.746 30.5398C136.514 30.5398 135.027 32.556 135.027 35.039C135.027 37.5219 136.514 39.5388 138.746 39.5388ZM144.397 34.9335C144.397 38.2652 141.889 40.918 138.597 40.918C135.07 40.918 133.051 38.329 133.051 35.1451C133.051 31.8128 135.537 29.16 138.83 29.16C142.548 29.16 144.397 31.6221 144.397 34.9335Z" fill="#4F4C4C"/>
<path d="M155.568 31.8766C154.676 31.0487 153.613 30.5821 152.36 30.5821C149.917 30.5821 148.238 32.7897 148.238 35.1028C148.238 37.7979 150.384 39.4119 152.488 39.4119C154.251 39.4119 156.227 38.0315 156.227 38.0315L156.694 39.4119C156.694 39.4119 154.782 40.918 152.191 40.918C149.194 40.918 146.305 38.9655 146.305 35.2726C146.305 31.749 149.045 29.16 152.445 29.16C154.017 29.16 155.356 29.6475 156.546 30.6244L155.568 31.8766Z" fill="#4F4C4C"/>
<path d="M164.94 38.2014C164.09 39.9632 162.9 40.918 161.074 40.918C160.755 40.918 160.414 40.8542 160.075 40.7273L159.799 39.2629C160.117 39.369 160.457 39.4542 160.775 39.4542C161.795 39.4542 162.518 39.093 162.985 38.286L159.055 31.2616L157.652 29.3716H160.075L163.474 35.5063L163.941 36.6733L164.387 35.5063L167.34 29.3716H169.21L164.94 38.2014Z" fill="#4F4C4C"/>
<path d="M172.244 39.1786H177.619V30.8585H173.518V32.0469C173.518 34.9756 173.306 37.1194 172.244 39.1786ZM169.035 39.1786H170.246C171.5 37.1194 171.649 34.9756 171.712 32.0469L171.734 30.964L171.479 29.372H179.424V39.1786H180.869V43.4019H179.128V40.643H170.778V43.4019H169.035V39.1786Z" fill="#4F4C4C"/>
<path d="M185.241 36.2697H188.746L187.26 32.5977L187.068 31.9618L186.835 32.5977L185.241 36.2697ZM186.644 29.3715L187.726 29.1379L191.615 38.6471L192.634 40.6426H190.51L189.299 37.7138H184.667L183.415 40.6426H181.715L186.644 29.3715Z" fill="#4F4C4C"/>
<path d="M198.096 35.1028C199.498 35.1028 200.709 34.232 200.709 32.8105C200.709 31.4737 199.498 30.7943 198.096 30.7943H196.906V35.1028H198.096ZM198.435 29.3716C200.56 29.3716 202.621 30.4545 202.621 32.8105C202.621 34.7845 200.56 36.5254 197.799 36.5254H196.906V39.2628L197.119 40.6426H195.1V31.0279L194.824 29.3716H198.435Z" fill="#4F4C4C"/>
<path d="M213.802 31.8766C212.911 31.0487 211.848 30.5821 210.594 30.5821C208.152 30.5821 206.473 32.7897 206.473 35.1028C206.473 37.7979 208.618 39.4119 210.722 39.4119C212.486 39.4119 214.461 38.0315 214.461 38.0315L214.929 39.4119C214.929 39.4119 213.016 40.918 210.424 40.918C207.429 40.918 204.539 38.9655 204.539 35.2726C204.539 31.749 207.28 29.16 210.68 29.16C212.252 29.16 213.59 29.6475 214.78 30.6244L213.802 31.8766Z" fill="#4F4C4C"/>
<path d="M215.773 29.3716H225.738V30.8151H221.595V39.2628L221.807 40.6426H219.789V30.8151H215.773V29.3716Z" fill="#4F4C4C"/>
<path d="M230.023 39.242H231.362C233.381 39.242 233.996 38.2234 233.996 37.2251C233.996 35.7392 232.997 35.2725 231.065 35.2725H230.023V39.242ZM230.023 33.8505H231.362C231.936 33.8505 232.743 33.9566 232.743 33.9566C233.062 33.5954 233.422 33.022 233.422 32.3223C233.422 31.1977 232.637 30.6881 230.788 30.6881C230.555 30.6881 230.299 30.7089 230.023 30.7304V33.8505ZM231.298 29.2869C233.571 29.2869 235.165 30.2429 235.165 31.9826C235.165 32.8957 234.358 33.7861 233.826 34.2749C235.037 34.7844 235.887 35.4633 235.887 37.0767C235.887 38.9231 234.634 40.6426 231.149 40.6426H228.217V31.0278L227.941 29.3715C231.107 29.2869 231.298 29.2869 231.298 29.2869Z" fill="#4F4C4C"/>
<path d="M239.335 31.0279L239.059 29.3716H245.708V30.7943H241.14V34.148H245.177L244.731 35.5694H241.14V39.2199H245.963L245.518 40.6426H239.335V31.0279Z" fill="#4F4C4C"/>
<path d="M259.62 39.2628L259.832 40.6426H257.814V35.5902H251.164V39.2628L251.377 40.6426H249.358V31.0279L249.082 29.3716H251.164V34.0621H257.814V31.0279L257.538 29.3716H259.62V39.2628Z" fill="#4F4C4C"/>
<path d="M274.616 39.2628L274.828 40.6426H272.81V35.5902H266.159V39.2628L266.372 40.6426H264.354V31.0279L264.078 29.3716H266.159V34.0621H272.81V31.0279L272.533 29.3716H274.616V39.2628Z" fill="#4F4C4C"/>
<path d="M290.869 39.3481L291.061 40.6426H289.063V30.9635L288.809 29.3716H290.869V39.3481ZM281.139 39.2628H282.541C284.623 39.2628 285.239 38.2443 285.239 37.119C285.239 35.4633 284.219 34.9752 282.244 34.9752H281.139V39.2628ZM281.139 33.5955H282.308C285.919 33.5955 287.152 35.2511 287.152 37.119C287.152 38.9863 285.919 40.6426 282.308 40.6426H279.333V30.9635L279.078 29.3716H281.139V33.5955Z" fill="#4F4C4C"/>
<path d="M302.631 26.1461L303.692 26.4852C303.692 26.4852 302.927 28.9473 300.654 28.9473C298.381 28.9473 297.615 26.4852 297.615 26.4852L298.678 26.1461C298.678 26.1461 299.422 27.8226 300.654 27.8226C301.886 27.8226 302.631 26.1461 302.631 26.1461ZM303.48 32.6407L297.191 40.6426H295.513V30.9635L295.258 29.3716H297.318V38.2651L297.828 37.3741L304.117 29.3716H305.795V39.3481L305.987 40.6426H303.99V31.7491L303.48 32.6407Z" fill="#4F4C4C"/>
<path d="M125.047 54.7222L141.909 55.3146H156.766L173.628 54.7222V64.7091H171.103C171.028 62.4899 169.543 58.1992 163.005 58.1992H152.532V98.5865C152.532 101.842 153.275 104.209 156.915 104.58V107.094H141.686V104.58C145.252 104.136 146.144 101.916 146.144 98.5865V58.1992H135.595C130.173 58.1992 128.316 61.0838 127.573 64.7091H125.047V54.7222Z" fill="#EE273C"/>
<path d="M211.498 81.2038C211.498 96.3682 220.189 104.801 230.44 104.801C240.691 104.801 249.382 96.3682 249.382 81.2038C249.382 66.04 240.691 57.6076 230.44 57.6076C220.189 57.6076 211.498 66.04 211.498 81.2038ZM204.218 78.3192C205.481 66.6311 214.692 54.7217 230.44 54.7217C247.674 54.7217 256.811 68.8504 256.811 81.2038C256.811 93.5571 247.674 107.685 230.44 107.685C216.178 107.685 204.144 96.8115 204.071 81.2038H191.962V98.5862C191.962 101.768 192.705 104.282 196.419 104.579V107.093H181.191V104.579C184.831 104.209 185.574 101.768 185.574 98.5862V63.8949C185.574 61.0097 185.128 58.5685 181.191 57.8283V55.3141H196.419V57.8283C192.333 58.4949 191.962 61.1581 191.962 63.8201V78.3192H204.218Z" fill="#EE273C"/>
<path d="M282.38 77.8752C277.699 77.8752 276.363 79.7247 276.363 80.9818C276.363 81.6471 276.808 83.423 280.894 83.423C282.677 83.423 287.282 82.9054 290.402 79.7989C287.729 78.3192 285.054 77.8752 282.38 77.8752ZM266.483 56.1279H268.935C269.53 57.2372 270.346 57.7547 271.683 57.7547C272.797 57.7547 274.209 57.385 276.14 56.719C279.038 55.6839 282.008 54.7217 286.243 54.7217C298.053 54.7217 303.699 61.2317 303.699 68.2593C303.699 72.7714 301.396 75.5817 298.202 78.3192V78.7625C302.659 81.278 306.002 86.012 306.002 91.9303C306.002 101.62 296.122 107.685 286.019 107.685C279.483 107.685 274.209 106.206 269.232 103.026C267.3 101.768 265.22 100.51 263.587 100.51C261.953 100.51 260.243 102.951 259.724 103.616L258.164 101.768C260.913 97.8473 263.438 94.6671 267.152 94.6671C269.677 94.6671 272.426 96.4417 275.843 99.105C279.112 101.693 282.974 104.801 287.729 104.801C293.002 104.801 298.574 99.8445 298.574 92.2252C298.574 87.7131 296.79 84.3104 293.893 81.9433C290.922 83.7186 286.019 85.7901 280.82 85.7901C275.174 85.7901 273.317 82.9055 273.317 80.9818C273.317 79.8725 273.838 77.4312 277.849 76.0257C279.409 75.5082 281.637 75.212 284.98 75.212C287.653 75.212 290.254 75.7301 293.151 76.7653C295.825 74.3246 296.939 70.9961 296.939 68.3328C296.939 64.8559 295.528 61.9713 293.226 60.1218C291.591 58.7911 289.363 57.6076 286.169 57.6076C282.528 57.6076 273.02 57.9761 268.563 68.1844H266.483V56.1279Z" fill="#EE273C"/>
<path d="M0.428357 42.7827C0.439136 42.7011 0.444166 42.6036 0.456622 42.5294C0.424284 42.5049 0.422608 42.6177 0.428357 42.7827Z" fill="#1B1615"/>
<path d="M109.532 5.4572C109.532 5.47867 109.531 5.49646 109.531 5.521C109.578 5.30325 109.569 5.34066 109.532 5.4572Z" fill="#1B1615"/>
<path d="M108.782 20.1461C108.779 20.0755 108.777 20.0069 108.774 19.9376C108.855 19.1686 109.181 16.0914 109.37 15.3163C109.57 14.5749 109.816 15.3918 110.041 15.9351C109.825 17.0885 109.497 20.235 109.471 20.4772C109.484 20.5128 109.377 20.5336 109.394 20.5649C109.077 20.579 108.922 20.4478 108.782 20.1461ZM109.858 28.3945C110.006 27.5691 110.518 29.0114 110.642 28.9439C110.515 28.5226 110.398 25.865 110.489 25.5669L110.688 26.943C110.827 25.1371 110.195 23.9959 110.55 21.8251C110.574 21.0763 111.027 19.5886 110.808 19.4592C110.678 19.8327 110.463 20.1025 110.222 20.2889V18.3916C110.222 18.3916 110.38 16.3631 110.447 16.1178C110.346 16.073 110.22 15.3917 110.18 15.1078C110.267 14.3211 110.494 15.4335 110.448 13.7238C110.073 13.4386 110.207 11.1384 110.191 9.17491C109.949 9.8004 109.364 7.41191 109.257 5.73659C109.352 5.83532 109.477 5.4594 109.533 5.27727C109.543 4.33904 109.562 3.52039 109.586 2.75938C109.613 1.94012 109.638 1.18343 109.662 0.423037C109.048 0.404637 108.431 0.386831 107.777 0.367821C107.459 0.362303 107.132 0.356167 106.791 0.350031C106.463 0.347582 106.123 0.345124 105.765 0.342666C105.474 0.250682 104.176 0.105345 104.176 0.105345C104.176 0.105345 101.762 1.06934 98.4593 1.28765C95.8348 1.40478 97.3218 0.982876 96.8662 1.05033C91.9353 0.967544 92.665 1.87328 88.5718 1.53294C86.9467 1.23308 88.2462 1.14295 87.8862 0.926488C87.43 0.470864 86.7462 0.379458 86.1532 0.197329C85.5609 0.01459 84.5871 -0.063242 82.1403 0.0600083C81.4645 0.161196 79.9953 0.570816 80.5472 0.691616L81.7509 0.649942C82.5015 0.814281 81.627 1.39436 81.1831 1.47407C81.1898 1.46426 81.5308 1.4845 81.1831 1.42808L72.4281 1.10919C72.1184 1.41703 66.8006 1.731 67.5941 1.97567C66.7227 1.87878 63.052 1.91313 61.8887 1.92968C60.9554 1.8334 61.5539 1.20301 62.4332 1.07362C62.8177 1.05338 63.1176 1.04298 63.3617 1.03991C63.5413 1.04665 63.7186 1.05036 63.8909 1.04913C64.4685 1.08224 64.5372 1.1914 65.2228 1.26867C64.8916 1.16565 64.5163 0.584308 64.5163 0.584308C64.4814 0.52176 63.7566 0.809943 62.164 0.57263C61.5631 0.63579 60.3093 0.782396 60.3438 0.961457C60.3438 0.961457 59.7261 1.09267 58.8723 1.10003L58.8089 0.974933C58.8888 0.96328 50.4125 0.961457 50.4125 0.961457L50.3998 0.959601L50.4007 0.961457H23.1249L22.5126 0.892772L22.0501 0.961457H1.07985V8.214C1.35435 7.32053 1.77786 6.1456 1.77786 6.1456C1.88996 6.28174 2.15298 7.06176 2.16975 7.6529C1.90146 8.46604 1.43916 10.142 1.14356 10.0009C1.6121 11.9369 0.403624 11.1397 1.07433 14.3155C0.96654 15.0165 0.904022 13.7176 0.781378 14.0923C1.00798 14.8975 1.05517 15.8695 0.953847 17.6711L0.897553 17.4675C0.95289 22.5284 0.774909 20.4576 0.626154 26.1433C0.626154 26.1433 0.984029 25.1861 1.16488 25.6197C0.632862 27.2404 1.15674 34.2354 0.552138 35.3312C0.549025 37.2102 0.854916 34.78 0.851322 36.6589L0.687476 37.1574L1.56539 36.7226C1.53065 37.9546 1.65258 46.1798 1.10955 45.7517C1.12584 45.4525 0.435962 42.9229 0.424464 42.6022C0.245049 44.0886 0.455843 46.7059 0.435722 47.5067L0.440513 49.3691C0.593818 54.4987 0.366256 55.2965 0.698974 60.2526L1.3831 61.9395C1.61138 65.7243 1.55102 65.8556 1.51988 69.9194L1.18692 68.8836C1.44658 69.8065 0.454646 67.1409 0.440513 68.2778C0.29631 67.2286 0.159773 70.2517 0 68.8757C0.245049 72.9794 1.10715 74.8393 1.56539 77.5497L1.36106 78.1752C1.54598 79.0987 1.69474 79.3053 1.74792 81.3805C1.66288 80.5581 1.21494 80.4361 1.13302 80.7317C1.04559 81.0481 0.951449 81.3811 0.831202 80.395C0.585195 82.7878 0.745689 84.5012 0.83192 85.892C1.20321 85.8325 1.58048 85.7932 1.96423 85.7889C1.96398 85.8312 1.96398 85.8729 1.96374 85.9146C4.39411 85.8797 6.71115 85.9668 8.72497 86.2562C11.7643 86.6928 14.9573 88.1382 17.9638 88.3608C19.826 88.4975 21.7231 88.1063 23.6227 87.6274C26.3251 93.0133 31.127 96.6932 31.127 96.6932C31.2091 95.6924 31.2807 94.7573 31.2939 93.651C35.0961 96.8104 38.2192 97.5548 44.4422 99.1829C39.8078 96.5681 36.3573 94.428 33.8345 92.0941C32.4564 90.8198 30.4615 87.6145 29.793 86.5052C29.6861 86.328 29.3865 85.5375 29.4269 85.1727C29.4727 84.7618 29.5723 84.3988 29.8679 84.5116C36.9475 88.4681 43.1061 91.9169 48.7159 91.9107C60.7896 91.8978 68.9162 83.3336 70.7675 68.9253C73.5221 69.9194 75.7113 68.0957 76.5318 66.5448C77.0855 65.4993 77.2106 64.409 76.9905 63.9239C76.8844 63.6903 76.2583 65.8611 75.8021 65.4508C75.3464 65.04 76.9255 62.6613 77.3437 61.777C78.6014 59.1163 80.5999 54.9396 80.4533 54.9629C79.9395 55.0439 76.4043 59.1764 76.4404 59.2487C75.9229 58.2087 79.0344 53.8769 79.2588 52.7841C79.9922 49.2041 78.9326 45.6806 78.1857 42.2251C77.4817 38.9689 78.1164 39.2007 77.9306 36.6301C77.7687 34.3918 77.8582 30.8787 74.9742 30.087C75.3789 30.198 74.0912 34.6205 74.0133 34.7064C73.7502 33.3941 68.2441 16.7194 66.2389 18.242C66.7693 17.8379 67.8124 24.9782 67.1189 26.1679C66.0144 22.0568 62.2155 19.4727 58.3688 18.2138C58.3144 17.0462 61.5588 17.9875 61.2977 16.6335C60.5912 12.9683 50.7914 17.5202 48.8071 19.03C47.2834 20.189 43.7909 23.225 40.8726 20.6716C40.1693 20.0559 43.6113 18.6602 44.763 17.8735C45.5815 17.3142 45.4334 16.9659 42.2672 17.2026C38.5819 17.4785 35.7362 20.8568 32.9384 23.1337C29.5201 25.9158 28.3366 29.6492 27.1379 33.3671C26.4054 35.6391 26.9798 41.6174 25.8245 42.8328C24.7449 42.1625 23.0743 30.7278 23.1189 29.3658C23.1639 28.0039 23.1388 25.8613 24.1832 24.5018C26.6354 21.3093 27.2133 21.3051 26.7405 17.4172C27.4313 17.6484 34.1916 13.6625 35.557 13.1228C38.3402 12.0227 41.6758 11.6088 44.6745 11.889C44.11 11.1035 43.3386 10.7178 42.3609 10.7313C43.6647 9.94573 45.6624 11.5622 46.7375 11.0225C47.4616 10.6589 47.9783 9.93223 48.8655 9.49071C52.0328 7.91474 52.0543 6.9992 55.8541 8.34215C56.8403 8.69107 58.8678 10.4731 61.124 12.1343C64.2735 14.4535 67.8688 16.5354 69.7079 14.1494C69.9434 16.4256 71.9351 14.7466 72.6464 14.0249C71.9529 16.2092 78.3819 21.0187 79.5997 22.5652C81.161 24.5465 83.7028 38.7444 87.1252 38.6481C86.2428 38.899 85.5222 38.6708 84.9624 37.9632C86.929 46.7543 82.1747 55.57 78.8117 63.353C77.4332 66.5436 77.2082 67.6922 74.3432 70.0108C73.6153 70.5995 72.6102 71.2875 71.607 71.1961C69.6006 77.0327 67.8676 85.697 68.0503 88.7066C69.1707 88.0008 70.3702 87.3011 70.3303 86.7008C70.9828 92.749 79.5243 98.0981 84.8832 100.911C90.2422 103.724 100.892 108.476 104.538 109.969C105.376 110.233 106.21 110.511 107.035 110.819C107.141 110.858 107.243 110.906 107.347 110.949C107.824 111.083 108.29 111.203 108.75 111.322C108.75 111.371 108.75 111.42 108.749 111.47C108.749 111.47 108.657 111.48 108.749 111.479C108.749 111.491 108.794 111.768 108.794 111.78C109.402 111.846 109.944 111.726 110.506 111.929C110.541 111.203 110.262 110.311 110.139 109.66C110.239 109.085 110.622 110.099 110.759 109.923C110.469 106.724 110.548 107.181 110.158 104.553L110.306 102.675C109.698 102.478 109.41 101.014 109.364 100.483C109.317 99.9519 109.367 99.411 109.592 98.4538C109.517 98.4176 109.443 98.26 109.353 98.1208C109.402 97.8682 109.458 97.7805 109.518 97.8062C109.619 97.8485 109.733 98.2048 109.844 98.6292C109.835 98.6739 109.679 99.4264 109.626 99.687C109.713 99.9807 110.048 100.699 110.158 100.931C110.201 100.959 110.244 100.97 110.285 100.94C110.261 100.83 110.169 99.9083 110.222 99.4092C110.276 98.91 110.441 98.4838 110.441 98.4838L110.688 94.642C110.36 92.3725 109.045 85.1953 109.045 85.1953C109.045 85.1953 109.638 85.2977 109.82 85.0586C109.866 84.021 110.155 79.8603 110.155 79.8603C110.155 79.8603 109.836 79.2998 110.19 77.1315C110.195 77.6202 110.226 74.1438 110.388 74.8C110.388 74.8 110.694 69.0946 109.546 66.2713C109.546 66.2713 109.258 62.4559 108.953 61.3466C108.649 60.2372 108.576 59.7381 108.68 59.0666L111.555 59.3683C111.956 59.1543 109.239 38.715 108.787 36.4798C108.736 35.6881 108.896 32.6349 108.896 32.6349L108.806 31.6066C108.801 31.2877 108.799 30.9694 108.807 30.653C109.005 31.3134 109.86 37.9135 110.566 38.1281C111.737 38.4832 111.692 32.2363 111.692 32.2363C111.32 32.4399 109.792 31.6384 109.858 28.3945Z" fill="#4F4C4C"/>
<path d="M34.4618 45.2793C33.5013 44.7415 33.4802 43.4243 34.532 42.9178C35.9937 42.2126 38.3187 42.307 39.8448 43.4249C39.8886 43.3943 34.2513 45.1616 34.4618 45.2793Z" fill="white"/>
<path d="M44.1267 61.0078C42.0456 60.6644 42.8993 58.5119 43.1381 58.0624C43.4392 58.7137 43.6541 59.1939 44.4225 59.3846C43.7413 59.8617 43.8113 60.5424 44.1267 61.0078Z" fill="white"/>
<path d="M24.9387 53.5623C25.3112 53.9652 26.0692 57.5415 26.5194 58.4871C27.6743 60.9124 26.3245 60.9019 27.6139 63.6553C25.6641 63.0132 24.5351 59.5958 23.7228 57.0282C23.5434 56.461 22.9132 51.3738 24.9387 53.5623Z" fill="white"/>
<path d="M53.5995 60.2365C53.4139 60.7038 52.5556 61.003 50.6477 60.315C52.2648 58.2969 53.8372 59.4743 53.5995 60.2365ZM71.2075 45.1108C70.8604 45.4027 69.0183 48.0898 67.0118 48.0898C65.2727 48.0898 64.4688 47.0173 63.7746 46.3949C63.0799 45.773 62.2293 45.1083 61.778 45.1083C61.2907 45.1083 60.7745 45.2426 60.7745 45.5952C60.7745 46.3249 61.4285 46.4384 61.8461 46.1882C61.9859 46.1042 62.1429 46.0741 62.3041 46.0754C61.2566 48.2498 59.0002 47.9518 58.1531 45.5639C56.4817 46.7824 55.494 47.292 55.494 47.292C55.8265 46.3078 57.608 45.4812 56.1288 45.0501C58.221 40.5791 65.8731 45.0629 66.5863 44.8066C66.8665 38.6805 56.5674 43.2938 54.6698 39.9426C57.8286 36.5183 68.8221 39.6488 68.5927 39.8211C68.1254 35.5028 64.226 28.547 60.882 26.1941C57.8729 24.0773 39.3835 27.3237 36.9561 28.8708C34.5267 30.4192 32.1066 37.7 32.0216 40.8237C34.9545 38.5763 44.1578 39.7586 46.4677 43.2024C47.3195 44.4724 47.5662 45.7859 47.475 47.1007C47.2211 50.7494 44.972 54.4127 44.6075 57.1489C44.4048 58.6673 45.7831 60.0206 48.9544 60.6755C48.1557 61.2182 47.6149 62.0436 47.2596 62.8371C46.6912 64.1065 46.7049 64.7185 46.6934 65.1024C47.0773 65.5777 47.8383 67.0586 49.6234 67.3026C49.6909 67.0892 49.8296 64.3837 49.8565 64.1169C50.3087 64.9816 50.8221 67.2481 52.9446 65.815C53.8302 65.0239 54.2937 63.9998 54.2877 64.0311C55.2059 64.6419 55.6016 66.1872 56.4091 67.4946C55.7786 64.3917 58.9647 67.6565 59.9365 69.398C60.4477 68.8032 59.5233 66.2884 60.9251 68.4874C61.0034 67.8993 60.842 67.3903 60.4403 66.9598C61.2847 67.5859 61.7572 68.5524 62.6433 69.1092C62.482 68.5579 61.7559 67.4989 62.0815 67.0463C66.4618 71.4989 62.6518 71.8987 58.3093 70.3939C56.4517 69.7494 44.3899 67.1364 45.0405 70.4399C47.8432 71.6761 51.8832 69.9567 54.2063 71.9999C51.4475 76.5439 46.1206 72.0753 42.4487 72.1667C40.7025 72.2096 38.463 73.6446 37.484 72.2605C36.7173 71.177 37.3827 69.7966 37.7377 68.7087C39.5412 70.5907 40.0351 67.3106 42.088 66.5263C42.088 66.7655 42.5584 68.182 42.689 68.2016C42.8183 67.6332 43.6557 66.3748 44.0376 67.5626C43.7733 66.1755 45.087 64.0158 45.5194 63.0162C45.1242 63.0162 44.5576 63.8569 43.604 65.1441C43.5657 64.7768 43.2425 64.4377 43.0823 64.1053C42.3129 65.4808 40.7775 65.9634 40.1777 64.7615C40.3178 64.6075 40.8258 63.4117 41.7903 61.4255C41.8978 61.2041 42.0111 60.9724 42.1301 60.732C42.2499 60.6474 41.641 59.7551 42.145 58.0025C42.5185 56.7037 42.832 55.3424 43.4064 54.1705C43.9758 53.0085 45.0753 50.6537 44.5382 49.1728C44.5382 49.1728 43.9923 49.5689 43.2565 49.4812C43.8783 46.6684 38.9143 44.2332 38.3181 47.476C38.637 47.5771 39.9206 47.893 40.0763 47.59C39.1934 50.0883 35.8307 48.6055 35.5667 46.8382C35.1557 47.4711 34.9631 47.9598 35.2455 48.757C35.0623 48.9103 33.8444 49.1458 33.3134 48.6178C33.3074 46.7984 31.3653 46.7861 30.3496 46.9345C29.4197 47.5158 28.4697 49.9344 28.4649 51.8593C28.4493 58.1779 31.2946 66.698 33.2983 72.653C34.5583 76.3967 39.1131 79.2059 39.4344 78.8398C42.5251 81.6281 46.0469 82.2769 49.7448 82.5026C56.0866 82.8895 63.319 79.9356 66.4955 73.3827C67.6422 71.0163 69.3654 61.4366 70.2343 58.6078C70.6262 57.3335 72.5854 45.4744 71.2075 45.1108Z" fill="white"/>
</svg>
