<svg width="69" height="73" viewBox="0 0 69 73" fill="none" xmlns="http://www.w3.org/2000/svg">
<path d="M0 0H60L69 69L0 60V0Z" fill="#EE3940"/>
<path fill-rule="evenodd" clip-rule="evenodd" d="M49.9417 21.6163L49.9753 21.9926C49.9753 21.9926 49.9149 23.1146 49.9149 23.4001C50.0728 24.2164 51.0705 31.721 50.9226 31.7983L49.8678 31.6874C49.8352 31.9703 49.8697 32.2569 49.9686 32.5239C50.0731 33.1221 50.146 33.7253 50.187 34.3312C50.6069 35.3692 50.496 37.462 50.496 37.462C50.427 37.2392 50.4224 38.3358 50.4221 38.3358C50.4221 38.3358 50.4221 38.3303 50.4221 38.3186C50.3045 39.1215 50.4221 39.3264 50.4221 39.3264C50.4221 39.3264 50.3146 40.8549 50.2978 41.2345C50.2306 41.3218 50.0123 41.2849 50.0123 41.2849C50.0123 41.2849 50.496 43.9185 50.617 44.7516L50.5263 46.1625C50.4865 46.271 50.4594 46.3837 50.4456 46.4985C50.4359 46.6858 50.4437 46.8736 50.4691 47.0594C50.4625 47.0649 50.4542 47.0679 50.4456 47.0679C50.437 47.0679 50.4287 47.0649 50.4221 47.0594C50.3494 46.9106 50.2843 46.7581 50.2273 46.6026L50.3079 46.2129C50.2642 46.0584 50.2105 45.9207 50.187 45.9106C50.1634 45.9005 50.1433 45.9307 50.1265 46.0248C50.137 46.0406 50.1469 46.0584 50.1563 46.0754C50.177 46.1125 50.1954 46.1457 50.2138 46.1457C50.1443 46.3879 50.1159 46.6399 50.1299 46.8915C50.1299 47.0863 50.2441 47.6238 50.4658 47.6977L50.412 48.3864C50.5267 49.152 50.5313 49.2037 50.5821 49.7813C50.5953 49.931 50.6116 50.1162 50.6337 50.3583C50.6129 50.3847 50.5764 50.3361 50.5382 50.2852C50.4842 50.2133 50.4269 50.137 50.4053 50.2608C50.4804 50.5328 50.5255 50.8122 50.5397 51.0939C50.3333 51.0505 50.1223 51.0325 49.9115 51.0402C49.9115 51.0397 49.9122 51.0372 49.9132 51.0333C49.9196 51.009 49.9404 50.9293 49.9115 50.9293V50.8756L49.3975 50.7379L49.2833 50.6908C48.981 50.5766 48.6753 50.4758 48.3662 50.3784C47.0259 49.8308 43.1191 48.084 41.1505 47.0527C39.4205 46.1424 36.7902 44.5165 36.0142 42.6286C35.9667 42.5141 35.923 42.378 35.8787 42.2397C35.8229 42.0653 35.7659 41.8875 35.6984 41.7451C35.7067 41.8472 35.6846 41.9495 35.635 42.0391C35.5854 42.1287 35.5105 42.2017 35.4196 42.249L35.124 42.427C34.9292 41.6309 35.5372 38.285 36.2729 36.1418C36.6511 36.1255 37.0101 35.97 37.2806 35.7051C38.2039 34.9588 38.3786 34.5441 38.7509 33.6603C38.8026 33.5376 38.8581 33.4058 38.92 33.2629C39.0602 32.9425 39.2065 32.6172 39.3547 32.2877C40.5271 29.6815 41.8186 26.8103 41.1774 23.9443C41.2644 24.0666 41.3887 24.1572 41.5317 24.2027C41.6747 24.2481 41.8286 24.2459 41.9702 24.1962C41.147 24.2205 40.4636 21.9918 39.9287 20.2472C39.6473 19.3292 39.4069 18.5453 39.2089 18.294C39.0836 18.1348 38.8077 17.8815 38.4811 17.5817C37.6433 16.8126 36.4721 15.7375 36.6558 15.1598C36.3938 15.4252 35.6648 16.0433 35.5775 15.2068C34.9023 16.0836 33.5821 15.3177 32.4265 14.4678C32.1513 14.2661 31.8856 14.0592 31.6403 13.8682C31.146 13.4832 30.734 13.1624 30.4916 13.0771C29.3879 12.6833 29.1601 12.8171 28.527 13.189C28.3662 13.2835 28.1793 13.3933 27.9452 13.5138C27.7726 13.5992 27.6377 13.7138 27.5095 13.8227C27.3958 13.9194 27.2873 14.0116 27.1625 14.0748C26.9813 14.1662 26.7272 14.089 26.4592 14.0076C26.146 13.9125 25.8139 13.8116 25.5568 13.9673C25.7228 13.9591 25.8882 13.9938 26.037 14.0679C26.1858 14.142 26.3131 14.2531 26.4067 14.3905C25.267 14.2839 24.118 14.439 23.0474 14.844C22.8658 14.916 22.4232 15.1542 21.921 15.4245C21.039 15.8992 19.973 16.473 19.8124 16.4195C19.9629 17.649 19.8268 17.8197 19.2112 18.5921C19.1119 18.7166 19.0002 18.8568 18.8752 19.0196C18.5211 19.4744 18.5026 20.1732 18.4896 20.665C18.4883 20.7145 18.4871 20.7619 18.4855 20.8067C18.4687 21.2972 18.5661 24.4482 19.4328 26.1816C19.6092 25.8566 19.7036 25.4938 19.7083 25.1246V25.8188C19.6985 26.0449 19.6638 26.2255 19.6276 26.4141C19.5524 26.8057 19.4706 27.2317 19.5907 28.1703C19.735 29.302 19.9721 30.4199 20.2995 31.5127C20.5357 32.1324 20.8187 32.7332 21.1461 33.3099C21.1461 33.3099 20.7194 30.3538 20.6019 29.1109C20.5011 28.0594 20.9949 27.2196 21.2032 27.0718C21.1836 27.1291 21.154 27.1826 21.1158 27.2297C21.4887 27.1759 22.2042 27.1759 22.2042 27.8478C22.3084 27.9156 22.4281 27.9559 22.5521 27.9647C22.6761 27.9735 22.8003 27.9506 22.913 27.8982C22.8676 27.7808 22.8546 27.6534 22.8753 27.5293C22.896 27.4052 22.9496 27.289 23.0306 27.1927C23.128 27.8411 24.3508 28.3853 24.6867 27.4682C24.6296 27.579 24.1593 27.4615 24.0418 27.4245C24.2635 26.2353 26.0842 27.1289 25.8558 28.1602C26.021 28.1776 26.1872 28.1373 26.3261 28.046C26.5209 28.5902 26.1178 29.4535 25.9095 29.8801C25.7151 30.3352 25.56 30.8061 25.4459 31.2877C25.358 31.6178 25.358 31.9653 25.4459 32.2955L25.3216 32.5508C25.1802 32.8445 25.0652 33.0906 24.9749 33.2838C24.8402 33.5723 24.7606 33.7427 24.7304 33.7769C24.9488 34.2069 25.5131 34.0389 25.7953 33.535C25.8158 33.5771 25.8443 33.6192 25.8731 33.6616C25.9294 33.7446 25.9868 33.8291 25.9868 33.918C26.0258 33.865 26.0631 33.8141 26.0988 33.7655C26.3819 33.3791 26.5606 33.1353 26.6889 33.1353C26.6548 33.2165 26.6055 33.3171 26.5502 33.43C26.3493 33.8405 26.0683 34.4145 26.1447 34.8149C26.0069 34.3782 25.6979 34.8418 25.6508 35.0501C25.5432 34.8589 25.4683 34.6511 25.4291 34.4353C25.1323 34.548 24.9259 34.8039 24.7435 35.03C24.4636 35.377 24.2403 35.6538 23.8335 35.2348C23.8158 35.2888 23.796 35.3447 23.7757 35.4021C23.6459 35.7695 23.4953 36.1953 23.7394 36.5382C23.974 36.8714 24.4059 36.7555 24.8559 36.6347C25.0957 36.5703 25.3405 36.5046 25.5635 36.5046C26.0073 36.4936 26.5178 36.6655 27.0389 36.841C28.0996 37.1983 29.2044 37.5705 29.8802 36.4442C29.4063 36.0248 28.7325 36.0381 28.0508 36.0515C27.5146 36.0621 26.9735 36.0727 26.5209 35.8731C26.2824 34.6604 30.72 35.6211 31.3918 35.8563C32.9841 36.4072 34.385 36.2627 32.7759 34.6268C32.6834 34.7429 32.7933 34.9711 32.8873 35.1662C32.9265 35.2476 32.963 35.3233 32.9808 35.3826C32.8064 35.2729 32.6753 35.12 32.5437 34.9664C32.4294 34.8331 32.3148 34.6994 32.1712 34.5932C32.2459 34.6666 32.3025 34.7565 32.3363 34.8556C32.3702 34.9548 32.3803 35.0605 32.366 35.1643C32.0514 34.6707 32.0565 34.8255 32.0647 35.07C32.0698 35.2248 32.0762 35.4155 32.0032 35.5002C31.6471 34.8619 30.4781 33.6627 30.7099 34.8015C30.6064 34.6333 30.521 34.4543 30.4393 34.2832C30.2877 33.9655 30.1489 33.6746 29.9306 33.5283C29.8002 33.7711 29.6286 33.9894 29.4233 34.1733C28.7589 34.622 28.523 34.0757 28.3655 33.7111C28.3391 33.6499 28.3149 33.5939 28.2912 33.5485C28.29 33.5668 28.287 33.6169 28.283 33.6868C28.2653 33.9878 28.2263 34.6548 28.2073 34.7175C27.9806 34.6683 27.7673 34.5708 27.5818 34.4317C27.3963 34.2925 27.243 34.115 27.1323 33.9113C27.1511 33.5973 27.2359 33.2908 27.3812 33.0118C27.5265 32.7328 27.729 32.4875 27.9755 32.2921C26.8098 32.0536 26.3059 31.5564 26.3798 30.9988C26.4383 30.5599 26.6274 30.0574 26.83 29.5189C27.0927 28.8208 27.3782 28.0622 27.4313 27.3036C27.4762 26.7983 27.3457 26.2929 27.0617 25.8725C26.2118 24.6094 22.8324 24.1727 21.7575 24.9991C21.8859 23.7932 22.2476 22.6237 22.8223 21.5559L23.0608 21.1931C23.2094 20.947 23.4073 20.7342 23.642 20.5682C24.4146 20.1618 27.8579 19.4899 30.2094 19.3824H31.0626C31.5091 19.3572 31.9548 19.4438 32.3593 19.6344C33.5888 20.4977 35.0199 23.0507 35.1912 24.6363C35.2752 24.5725 31.2407 23.4236 30.0817 24.68C30.3749 25.2034 31.2288 25.1971 32.1048 25.1907C33.2865 25.1821 34.5086 25.1731 34.4488 26.4638C34.3864 26.4853 34.18 26.4088 33.8912 26.3018C32.966 25.9588 31.1954 25.3025 30.6091 26.5545C30.9599 26.6519 30.8125 26.8149 30.6309 27.0156C30.5308 27.1263 30.4203 27.2485 30.3773 27.3775C30.7174 27.1885 31.044 26.9764 31.3549 26.7426C31.6673 27.6193 32.497 27.7302 32.88 26.9307C32.8215 26.9293 32.7636 26.9432 32.712 26.971C32.6741 27 32.6285 27.0173 32.5809 27.0208C32.5333 27.0242 32.4857 27.0137 32.444 26.9906C32.4023 26.9674 32.3682 26.9325 32.346 26.8903C32.3238 26.848 32.3144 26.8002 32.319 26.7527C32.319 26.625 32.5105 26.5746 32.6885 26.5746C32.9689 26.6678 33.2209 26.8308 33.4208 27.0483C33.4533 27.0773 33.4869 27.109 33.5222 27.1422C33.7643 27.3702 34.0822 27.6697 34.61 27.6697C35.2095 27.6697 35.7693 27.0128 36.0244 26.7134L36.031 26.7056C36.1761 27.078 36.2468 27.4751 36.2393 27.8746C36.1935 28.5772 35.9841 29.2594 35.6279 29.8667L35.0165 32.843C35.0165 32.843 35.7623 30.6931 36.3602 30.0313C36.624 29.7393 36.9304 29.1628 37.2068 28.6426C37.5569 27.9839 37.8589 27.4154 37.9659 27.6294C38.3108 28.5081 38.4554 29.4525 38.3892 30.3941C38.2739 30.9578 38.0982 31.5074 37.8652 32.0334C37.6535 32.534 37.1698 33.1521 36.414 33.1084C36.3544 33.2317 36.2507 33.8104 36.1241 34.5163C35.9507 35.484 35.7344 36.6905 35.5305 37.2907C35.4081 37.7951 35.2567 38.2919 35.077 38.7788C34.9033 39.3377 34.7741 39.9095 34.6906 40.4887C34.395 42.7361 34.909 42.8738 34.909 42.8738C34.909 42.8738 31.0055 45.2387 28.2845 45.1211C26.2656 45.075 24.332 44.298 22.8425 42.9343C22.1961 42.3601 21.5837 41.7488 21.0083 41.1035L21.0318 41.0732L20.9647 41.0363C20.8572 40.9926 20.8034 41.127 20.8034 41.2781C20.7166 41.6045 20.7342 41.9499 20.8538 42.2658C21.2377 42.8842 21.702 43.449 22.2345 43.9454C23.4463 44.9898 24.8263 45.8212 26.316 46.4044L26.1784 46.3694C23.985 45.8117 22.8545 45.5243 21.4887 44.3888C21.4853 44.7919 21.4585 45.1379 21.4282 45.5041C20.297 44.5894 19.3604 43.4575 18.6736 42.1751C18.0003 42.3742 17.2995 42.4649 16.5976 42.4438C15.9902 42.3995 15.3625 42.2192 14.7352 42.0391C14.221 41.8914 13.7071 41.7438 13.2047 41.6712C12.3816 41.5664 11.5517 41.5249 10.7222 41.5469V41.4999C10.5827 41.5017 10.4434 41.514 10.3057 41.5368C10.2437 40.8664 10.2437 40.1917 10.3057 39.5212C10.3476 39.8696 10.3834 39.7534 10.4129 39.6574C10.4141 39.6534 10.4153 39.6494 10.4165 39.6455C10.4468 39.5481 10.6114 39.5817 10.6416 39.884C10.6474 39.4876 10.5999 39.0921 10.5005 38.7083L10.5744 38.4799C10.5167 38.1378 10.4414 37.8323 10.3638 37.5174C10.2158 36.917 10.0595 36.2825 10 35.2953C10.0298 35.5602 10.0578 35.3834 10.0854 35.2091C10.1107 35.0497 10.1356 34.8924 10.1612 35.0769C10.1655 34.8147 10.3108 35.1036 10.3944 35.2698C10.4437 35.3677 10.4716 35.4231 10.4367 35.2986L10.5576 35.6782C10.5596 35.3954 10.5619 35.1645 10.564 34.9665C10.5728 34.1206 10.5753 33.876 10.5073 32.749L10.2553 32.1308C10.1826 31.036 10.184 30.4938 10.1857 29.8243C10.1868 29.3804 10.1881 28.8806 10.168 28.1266V27.4547C10.168 27.3772 10.1633 27.2538 10.1577 27.1042C10.142 26.6836 10.1184 26.0556 10.168 25.6542C10.1696 25.712 10.2305 25.9654 10.292 26.2213C10.3556 26.486 10.4199 26.7534 10.4199 26.8098C10.6031 26.9502 10.592 24.4713 10.5885 23.6777C10.5882 23.5981 10.5879 23.5355 10.5879 23.4942L10.2519 23.652L10.3124 23.4706C10.3124 23.1263 10.2847 23.1767 10.257 23.2271C10.2293 23.2775 10.2016 23.3279 10.2016 22.9835C10.3183 22.7762 10.3221 21.9847 10.3258 21.188C10.3293 20.449 10.3329 19.7055 10.4266 19.4194C10.3594 19.2749 10.2284 19.6108 10.2284 19.6108C10.2541 18.6721 10.2784 18.309 10.2974 18.0254C10.3206 17.6777 10.3359 17.4493 10.3359 16.4263V16.5002C10.39 16.0658 10.373 15.6256 10.2855 15.1968C10.3058 15.1327 10.3218 15.2015 10.3371 15.2675C10.3547 15.3435 10.3715 15.4158 10.393 15.2774C10.2569 14.6302 10.333 14.4335 10.3983 14.2646C10.4507 14.1293 10.4961 14.0119 10.4199 13.6952C10.5115 13.7381 10.6495 13.2979 10.7486 12.9818C10.7658 12.9271 10.7818 12.876 10.7961 12.8318C10.7871 12.639 10.7379 12.4503 10.6517 12.2776C10.6517 12.2776 10.4972 12.7008 10.3964 13.0367V10.3728H18.0925L18.2638 10.3493L18.4889 10.4232H28.4894H31.5732L31.5968 10.4703C31.7782 10.4699 31.9592 10.453 32.1376 10.4199C32.1376 10.3527 32.5877 10.2989 32.8095 10.2754C33.0958 10.3159 33.3864 10.3159 33.6728 10.2754C33.6728 10.2754 33.8105 10.4904 33.9314 10.5274C33.8185 10.5152 33.7513 10.4974 33.6917 10.4816C33.6203 10.4627 33.5598 10.4467 33.4444 10.4467H33.2495H32.9136C32.5911 10.4971 32.3795 10.7256 32.7154 10.7625C33.1286 10.739 34.4723 10.7256 34.8082 10.7625C34.6544 10.7148 35.1221 10.6605 35.6164 10.6032C36.0613 10.5516 36.5278 10.4975 36.5819 10.4434L39.7967 10.561H39.837C40.005 10.5106 40.2603 10.3258 40.005 10.2687H39.5616C39.3634 10.2217 39.8975 10.0739 40.1528 10.0369C40.6392 9.97587 41.1322 9.9906 41.6141 10.0806C41.8444 10.1174 42.0623 10.2096 42.249 10.3493C42.3021 10.3802 42.2708 10.4043 42.2396 10.4282C42.186 10.4694 42.1329 10.5101 42.511 10.5845C43.28 10.6481 43.5847 10.592 43.9422 10.5261C44.2827 10.4633 44.6712 10.3917 45.5545 10.4064C45.6017 10.3998 45.5924 10.4073 45.5761 10.4204C45.5342 10.4541 45.4457 10.5252 46.139 10.4938C46.8559 10.4496 47.5628 10.3037 48.2386 10.0604C48.2386 10.0604 48.7156 10.1142 48.8231 10.1478H49.1993H49.5621L50.2642 10.1646L50.2374 11.0212C50.2172 11.3 50.2172 11.6089 50.2172 11.9448V11.945C50.197 12.0122 50.15 12.1499 50.1164 12.1129C50.15 12.7277 50.3616 13.6045 50.4523 13.376C50.4539 13.549 50.4523 13.7281 50.4508 13.9022C50.4458 14.4654 50.4412 14.9761 50.5464 15.0557C50.5565 15.4316 50.5304 15.4358 50.5014 15.4404C50.4819 15.4436 50.4611 15.4469 50.449 15.5629C50.4596 15.6908 50.4925 15.8159 50.5464 15.9324C50.5195 16.0198 50.4624 16.7655 50.4624 16.7655V17.4743C50.5625 17.3958 50.6373 17.2894 50.6774 17.1687C50.723 17.1972 50.6869 17.3836 50.647 17.5901C50.6163 17.7487 50.5834 17.9191 50.5834 18.0387C50.5092 18.4896 50.5513 18.8166 50.5927 19.1374C50.6244 19.3831 50.6556 19.6252 50.6337 19.9165L50.5598 19.4126C50.5398 19.8267 50.559 20.2417 50.617 20.6522C50.601 20.6602 50.5687 20.6046 50.531 20.5396C50.4576 20.4131 50.3635 20.251 50.3281 20.4507C50.3012 21.6432 50.8622 21.9355 50.9999 21.8616C50.9999 21.8616 51.0167 24.1559 50.5867 24.0249C50.398 23.9661 50.1806 22.6604 50.0482 21.865C49.9991 21.5704 49.9617 21.3458 49.9417 21.2804V21.6163ZM19.7083 25.0663C19.7085 25.0858 19.7085 25.1052 19.7083 25.1246V25.0663ZM29.6753 32.1275C29.6081 32.2988 29.2923 32.4097 28.5902 32.1577C29.1882 31.412 29.7626 31.8487 29.6753 32.1275ZM24.4449 39.1517C23.9934 38.8585 23.5572 38.5423 23.1381 38.2044L21.8414 41.557C21.8414 41.557 23.2624 43.1157 24.4449 43.5289C25.6559 44.027 26.9641 44.2441 28.2711 44.1638C29.9809 44.0462 31.1903 43.4012 32.6684 42.3296C34.1464 41.258 34.6604 39.5212 34.8956 38.6344C35.1307 37.7475 35.8026 34.8082 35.8026 34.8082L34.5294 36.6423C34.3169 37.116 34.0557 37.5664 33.75 37.9861C33.263 38.7184 32.1342 39.5246 31.1869 39.9378C30.1463 40.3564 29.0087 40.4728 27.9049 40.2737C26.695 40.1044 25.524 39.7247 24.4449 39.1517ZM19.6597 30.4244C19.5428 29.9994 19.4268 29.5772 19.3522 29.4972C18.6098 28.6809 18.8416 30.5486 18.9088 30.7603C19.2078 31.7009 19.621 32.9572 20.3365 33.1924C20.0929 32.674 20.1052 32.4223 20.117 32.1803C20.1282 31.9518 20.1389 31.7319 19.9334 31.3045C19.8579 31.1459 19.7585 30.7841 19.6597 30.4244ZM50.3627 15.8004C50.2899 15.6107 50.2118 15.4072 50.1467 15.6469V15.6368C50.0795 15.919 49.9585 17.0511 49.9317 17.3568V17.434C49.9449 17.4822 49.9748 17.5242 50.0159 17.5524C50.0571 17.5807 50.107 17.5935 50.1567 17.5886C50.15 17.5751 50.1836 17.555 50.1836 17.555C50.1937 17.4542 50.3113 16.2986 50.3919 15.8753C50.3823 15.8514 50.3726 15.826 50.3627 15.8004ZM22.118 36.4746C21.8123 35.6583 21.3622 34.0257 21.3622 34.0257C21.4494 34.7199 21.5955 35.4054 21.7989 36.0749C22.0234 36.6298 22.329 37.1483 22.7059 37.6134C22.4593 37.2622 22.2615 36.8791 22.118 36.4746Z" fill="white"/>
<path d="M17.3516 69.2045C17.4419 69.356 17.6256 70.7009 17.7347 71.0565C18.0146 71.9685 17.6875 71.9646 18 73C17.5274 72.7586 17.2537 71.4734 17.0569 70.5079C17.0134 70.2946 16.8606 68.3815 17.3516 69.2045Z" fill="white"/>
</svg>
